<?xml version="1.0" encoding="UTF-8" standalone="no"?>
<svg
   viewBox="0 0 250000 250000"
   version="1.1"
   id="svg112"
   width="250000"
   height="250000"
   xmlns="http://www.w3.org/2000/svg"
   xmlns:svg="http://www.w3.org/2000/svg">
  <defs
     id="defs112" />
  <!--Social Ideas-->
  <g
     id="freepik--ligh-bulbs--inject-1--inject-122">
    <g
       id="g35">
      <circle
         cx="249.66"
         cy="218.95"
         r="13.92"
         transform="rotate(-45,249.65232,218.95062)"
         style="fill:#455a64"
         id="circle23" />
      <path
         d="m 271,200.63 a 17.7,17.7 0 0 1 0.27,-3.41 c 0.81,-3.73 -1.25,-7.62 -6.21,-10.48 -8.53,-4.93 -22.36,-4.93 -30.89,0 -5,2.86 -7,6.75 -6.21,10.48 a 17.7,17.7 0 0 1 0.27,3.41 7.38,7.38 0 0 0 0.18,1.47 17.26,17.26 0 0 1 0.45,3.28 7.15,7.15 0 0 0 0.22,1.51 15.2,15.2 0 0 1 0.4,3.08 6.48,6.48 0 0 0 0.2,1.37 15.94,15.94 0 0 1 0.4,3.08 c 0.13,2.79 2,5.55 5.71,7.67 7.64,4.41 20,4.41 27.65,0 3.68,-2.12 5.58,-4.88 5.71,-7.67 a 16,16 0 0 1 0.41,-3.08 7.17,7.17 0 0 0 0.19,-1.37 14.54,14.54 0 0 1 0.41,-3.08 7.84,7.84 0 0 0 0.21,-1.51 17.26,17.26 0 0 1 0.45,-3.28 6.72,6.72 0 0 0 0.18,-1.47 z"
         style="fill:#c53aae"
         id="path24" />
      <path
         d="m 271,200.63 a 17.7,17.7 0 0 1 0.27,-3.41 c 0.81,-3.73 -1.25,-7.62 -6.21,-10.48 -8.53,-4.93 -22.36,-4.93 -30.89,0 -5,2.86 -7,6.75 -6.21,10.48 a 17.7,17.7 0 0 1 0.27,3.41 7.38,7.38 0 0 0 0.18,1.47 17.26,17.26 0 0 1 0.45,3.28 7.15,7.15 0 0 0 0.22,1.51 15.2,15.2 0 0 1 0.4,3.08 6.48,6.48 0 0 0 0.2,1.37 15.94,15.94 0 0 1 0.4,3.08 c 0.13,2.79 2,5.55 5.71,7.67 7.64,4.41 20,4.41 27.65,0 3.68,-2.12 5.58,-4.88 5.71,-7.67 a 16,16 0 0 1 0.41,-3.08 7.17,7.17 0 0 0 0.19,-1.37 14.54,14.54 0 0 1 0.41,-3.08 7.84,7.84 0 0 0 0.21,-1.51 17.26,17.26 0 0 1 0.45,-3.28 6.72,6.72 0 0 0 0.18,-1.47 z"
         style="opacity:0.8;fill:#ffffff"
         id="path25" />
      <g
         style="opacity:0.2"
         id="g27">
        <path
           d="m 264.35,213.64 a 32.5,32.5 0 0 1 -29.38,0 13.11,13.11 0 0 1 -5.06,-4.77 12.16,12.16 0 0 1 -0.79,-2 v 0 a 15.1,15.1 0 0 1 0.4,3.07 6.48,6.48 0 0 0 0.2,1.37 0.9,0.9 0 0 0 0,0.16 13.48,13.48 0 0 0 5.66,6.43 31.56,31.56 0 0 0 28.5,0 13.49,13.49 0 0 0 5.65,-6.42 c 0,0 0,-0.12 0,-0.17 a 7.17,7.17 0 0 0 0.19,-1.37 14.54,14.54 0 0 1 0.41,-3.08 11.2,11.2 0 0 1 -0.8,2 13.08,13.08 0 0 1 -4.98,4.78 z"
           style="fill:#c53aae"
           id="path26" />
        <path
           d="m 270.86,202.1 a 6.72,6.72 0 0 0 0.18,-1.47 17.7,17.7 0 0 1 0.27,-3.41 11.73,11.73 0 0 1 -0.69,2 13.38,13.38 0 0 1 -5.51,5.37 34.11,34.11 0 0 1 -30.9,0 13.32,13.32 0 0 1 -5.51,-5.37 11.38,11.38 0 0 1 -0.7,-2 v 0 a 17.53,17.53 0 0 1 0.27,3.4 7.38,7.38 0 0 0 0.18,1.47 c 0,0 0,0.07 0,0.1 a 13.85,13.85 0 0 0 6.05,7 33.55,33.55 0 0 0 30.28,0 13.88,13.88 0 0 0 6,-7 0.5,0.5 0 0 0 0.08,-0.09 z"
           style="fill:#c53aae"
           id="path27" />
      </g>
      <path
         d="m 249.66,70.28 a 54.92,54.92 0 0 0 -54.93,54.92 c 0,43.61 36,50.85 36,68.42 0,2.8 1.85,5.6 5.55,7.74 7.4,4.27 19.4,4.27 26.8,0 3.7,-2.14 5.55,-4.94 5.55,-7.74 v 0 c 0,-17.57 36,-24.81 36,-68.42 A 54.92,54.92 0 0 0 249.66,70.28 Z"
         style="fill:#c53aae"
         id="path28" />
      <path
         d="m 249.66,70.28 a 54.92,54.92 0 0 0 -54.93,54.92 c 0,43.61 36,50.85 36,68.42 0,2.8 1.85,5.6 5.55,7.74 7.4,4.27 19.4,4.27 26.8,0 3.7,-2.14 5.55,-4.94 5.55,-7.74 v 0 c 0,-17.57 36,-24.81 36,-68.42 A 54.92,54.92 0 0 0 249.66,70.28 Z"
         style="opacity:0.3;mix-blend-mode:screen;fill:#ffffff"
         id="path29" />
      <path
         d="m 238.68,200 c -6.06,-3.5 -6.06,-9.17 0,-12.67 6.06,-3.5 15.89,-3.5 21.95,0 6.06,3.5 6.06,9.17 0,12.67 -6.06,3.5 -15.89,3.46 -21.95,0 z"
         style="opacity:0.1"
         id="path30" />
      <path
         d="m 212.16,106.3 c -8.91,0 -15.57,18 -7.94,39 7.63,21 20,27.09 28.53,24.4 8.53,-2.69 10.46,-24.26 3.88,-40.26 -7.57,-18.36 -16.28,-23.15 -24.47,-23.14 z"
         style="opacity:0.3;mix-blend-mode:screen;fill:#ffffff"
         id="path31" />
    </g>
  </g>
</svg>
