<?xml version="1.0" encoding="UTF-8" standalone="no"?>
<svg
   viewBox="0 0 500 500"
   version="1.1"
   id="svg257"
   sodipodi:docname="Creative.svg"
   inkscape:version="1.4 (86a8ad7, 2024-10-11)"
   xmlns:inkscape="http://www.inkscape.org/namespaces/inkscape"
   xmlns:sodipodi="http://sodipodi.sourceforge.net/DTD/sodipodi-0.dtd"
   xmlns="http://www.w3.org/2000/svg"
   xmlns:svg="http://www.w3.org/2000/svg">
  <defs
     id="defs257" />
  <sodipodi:namedview
     id="namedview257"
     pagecolor="#505050"
     bordercolor="#ffffff"
     borderopacity="1"
     inkscape:showpageshadow="0"
     inkscape:pageopacity="0"
     inkscape:pagecheckerboard="1"
     inkscape:deskcolor="#505050"
     inkscape:zoom="2.162"
     inkscape:cx="250"
     inkscape:cy="212.99722"
     inkscape:window-width="2560"
     inkscape:window-height="1299"
     inkscape:window-x="3191"
     inkscape:window-y="232"
     inkscape:window-maximized="1"
     inkscape:current-layer="svg257" />
  <g
     id="freepik--character-1--inject-5">
    <g
       id="freepik--Character--inject-5">
      <g
         id="freepik--Bottom--inject-5">
        <path
           d="M112.69,304c.3-4.12,2.94-45.63,2.94-45.63l-20,13.95c2.73,23.8,4,30.73,4.11,34.69h0a3.52,3.52,0,0,0-.1,1c0,4.71,6.07,7.49,9.94,10.62a71.72,71.72,0,0,0,10.47,7.32c2.81,1.51,8.52,1.64,9.22-.29-4.71-3.85-10.16-8.06-13.9-12.46C113.62,311.09,112.34,308.9,112.69,304Z"
           style="fill:#c8856a"
           id="path1" />
        <path
           d="M137.34,330.7c.24,0,.61,2.85-.7,4.06-1.51,1.4-6,3.7-11.83,2.89s-9-2.76-11.4-4.87-5.64-5.07-8.3-5.7c-2.47-.58-5.15-1.77-5.93-2.59s-.69-4.45-.69-4.45Z"
           style="fill:#263238"
           id="path2" />
        <path
           d="M99.74,305.82a1,1,0,0,0-.89.85c-.18,1,.45,3.08-.28,6.52a27.06,27.06,0,0,0,0,8.1c.33,1.86,4.35,3.15,6.92,4.2a32.55,32.55,0,0,1,8.33,5.63c2.76,2.43,8.56,5,12.39,4.94,4.53,0,9.62-1.61,10.79-3.86,1.45-2.78.31-4.39-6.4-7.72-1.27-.63-5.74-3.46-7.26-4.49-4.12-2.77-8.19-6.63-10.09-11.54a2.71,2.71,0,0,0-1-1.5,2,2,0,0,0-1.31-.13,10.62,10.62,0,0,0-3.23,1c-.9.46-2.18,1-2.16,2.24a4.41,4.41,0,0,0,.25,1.25c.08.25.15.59-.06.74s-.45,0-.63-.19a30.78,30.78,0,0,1-2.9-2.57,7.3,7.3,0,0,0-1.06-1.16,10.6,10.6,0,0,1-1.15-.79C99.66,306.94,99.76,306.4,99.74,305.82Z"
           style="fill:#37474f"
           id="path3" />
        <path
           d="M113.85,331.12c-1.17-1-2.42-2-3.66-2.93h0s7.89,5.13,11.08,2.8c2.06-1.5,1.08-3.33,1-3.91s5-3.09,7-3.34h0c.56.33,1,.59,1.32.74,6.71,3.33,7.85,4.94,6.4,7.72-1.17,2.25-4.86,4-10.71,4C122.49,336.21,116.61,333.55,113.85,331.12Z"
           style="fill:#455a64"
           id="path4" />
        <path
           d="M98.92,309.37c.5.49,1,1,1.53,1.4,1.66,1.39,5.57,5.78,10,9.56,4.29,3.63,11.31,8,12.48,7.85s3-1-1.22-2.8-12.92-8.52-16.57-13.48h0a30.78,30.78,0,0,1-2.9-2.57,7.3,7.3,0,0,0-1.06-1.16c-.24-.19-.52-.33-.78-.5a2.06,2.06,0,0,1-.37-.29,1.2,1.2,0,0,1-.22-.35,2,2,0,0,1-.11-.78v-.43a1,1,0,0,0-.54.21,1.09,1.09,0,0,0-.35.64A20.94,20.94,0,0,0,98.92,309.37Z"
           style="fill:#263238"
           id="path5" />
        <path
           d="M122.68,327.52a.39.39,0,0,1-.27-.1.46.46,0,0,1,0-.62,9.58,9.58,0,0,1,7.64-3.24.45.45,0,0,1,.37.49.42.42,0,0,1-.46.39,8.9,8.9,0,0,0-6.92,2.92A.41.41,0,0,1,122.68,327.52Z"
           style="fill:#f0f0f0"
           id="path6" />
        <path
           d="M119,325.12a.39.39,0,0,1-.26-.1.46.46,0,0,1-.06-.62,9.61,9.61,0,0,1,7.65-3.23.44.44,0,0,1-.09.88,8.9,8.9,0,0,0-6.92,2.91A.42.42,0,0,1,119,325.12Z"
           style="fill:#f0f0f0"
           id="path7" />
        <path
           d="M115.39,322.85a.39.39,0,0,1-.26-.1.46.46,0,0,1-.06-.62,9.6,9.6,0,0,1,7.65-3.24.44.44,0,0,1,.36.49.41.41,0,0,1-.45.39,8.88,8.88,0,0,0-6.92,2.92A.42.42,0,0,1,115.39,322.85Z"
           style="fill:#f0f0f0"
           id="path8" />
        <path
           d="M112,320.25a.39.39,0,0,1-.26-.1.47.47,0,0,1-.06-.62,9.63,9.63,0,0,1,7.65-3.23.43.43,0,0,1,.37.49.43.43,0,0,1-.46.39,8.94,8.94,0,0,0-6.92,2.91A.39.39,0,0,1,112,320.25Z"
           style="fill:#f0f0f0"
           id="path9" />
        <path
           d="M108.71,317.66a.39.39,0,0,1-.26-.1.46.46,0,0,1-.07-.62c1.62-2.19,5.28-3.63,8.35-3.28a.44.44,0,0,1,.37.49.42.42,0,0,1-.45.39c-2.77-.32-6.18,1-7.62,2.95A.4.4,0,0,1,108.71,317.66Z"
           style="fill:#f0f0f0"
           id="path10" />
        <path
           d="M60.57,281.79c-.68,13.74-.4,20.82-1.38,33.29-.19,2.34-.75,18.2-.38,23.11.55,7.38,9.25,7.32,10.16,3s2.51-22.58,2.74-24.48c.78-8,3.31-13.92,6.89-32.3Z"
           style="fill:#c8856a"
           id="path11" />
        <path
           d="M71.89,344.58c-.28,4.28-1,7.1-2.49,9.6s-4.39,3.27-7.28,2.52-6.59-2.74-7.4-6.43a23.43,23.43,0,0,1,.05-10.17Z"
           style="fill:#263238"
           id="path12" />
        <path
           d="M59.3,313.55c-1.2.09-1.58,5.82-2.3,11.56-.78,6.15-1.38,8.72-2.07,13.76-.79,5.76-.5,8.34,1.5,11.84s9.13,7,12.69,2c2.9-4.05,3-8.57,2.81-14.33A125.32,125.32,0,0,1,72.38,324c.26-4.32.58-8.5-.45-9-.08.63-.17,1.44-.25,2.06s-.2,2.82-.87,2.83a8.76,8.76,0,0,1,0-1.62,1.9,1.9,0,0,0-.32-1.4,2.25,2.25,0,0,0-1.32-.6c-1.17-.24-3-.77-4.17-.88-.6-.06-2.44-.12-3-.12a4.84,4.84,0,0,0-1.51.21,1.07,1.07,0,0,0-.65.58,2.09,2.09,0,0,0-.07.66,4.66,4.66,0,0,1-.15,1.18c0,.17-.16.38-.34.34s-.19-.21-.19-.35c0-.7.09-1.2.13-2,0-.38.08-.89.09-1.26S59.27,313.92,59.3,313.55Z"
           style="fill:#37474f"
           id="path13" />
        <path
           d="M55.21,337.23c-.12.83-.86,6.34.64,7.34s2.53-3.24,2.53-3.24,3.81-1.14,9.34,1.31c-.29.89.55,3.85,2.08,3.23s2.14-6.92,2.15-7c.2,5.52,0,9.89-2.83,13.83-3.56,5-10.69,1.51-12.69-2s-2.29-6.08-1.5-11.84C55,338.29,55.1,337.75,55.21,337.23Z"
           style="fill:#455a64"
           id="path14" />
        <path
           d="M58.81,341.7c0,2.09-2.09,1.37-2.16-1.58s.33-9.94.35-15c.72-5.74,1.1-11.47,2.3-11.56,0,.07,0,.14,0,.21l-.17,2.92a12.51,12.51,0,0,0-.08,1.25c0,4.25.55,12.49.16,16.38A69.31,69.31,0,0,0,58.81,341.7Z"
           style="fill:#263238"
           id="path15" />
        <path
           d="M67.08,342.58a69.62,69.62,0,0,0,1.18-7.31c.43-3.85,2.15-11.6,3-15.8a11.11,11.11,0,0,0,.43-2.37c.08-.58.16-1.31.23-1.93l0-.12c.74.36.78,2.67.64,5.55-.16,1.67-.44,3.73-.83,6.23-1,4.95-1.53,11.84-2.22,14.71S66.68,344.63,67.08,342.58Z"
           style="fill:#263238"
           id="path16" />
        <path
           d="M67.84,342.81a.3.3,0,0,1-.16-.05,14.11,14.11,0,0,0-9.19-1,.45.45,0,0,1-.54-.32.44.44,0,0,1,.32-.54A14.78,14.78,0,0,1,68.09,342a.45.45,0,0,1,.19.6A.45.45,0,0,1,67.84,342.81Z"
           style="fill:#f0f0f0"
           id="path17" />
        <path
           d="M68.86,338.29a.33.33,0,0,1-.14,0,17.51,17.51,0,0,0-10.29-1.12.45.45,0,0,1-.53-.34.46.46,0,0,1,.34-.53,18.1,18.1,0,0,1,10.86,1.19.46.46,0,0,1,.21.6A.45.45,0,0,1,68.86,338.29Z"
           style="fill:#f0f0f0"
           id="path18" />
        <path
           d="M58.74,332.83a.45.45,0,0,1-.37-.3.44.44,0,0,1,.28-.56c5.36-1.78,11.26,1.29,11.48,1.41a.44.44,0,0,1,.19.59.45.45,0,0,1-.6.19s-5.8-3-10.79-1.35A.4.4,0,0,1,58.74,332.83Z"
           style="fill:#f0f0f0"
           id="path19" />
        <path
           d="M59.07,328.78a.46.46,0,0,1-.37-.29.45.45,0,0,1,.27-.57c5.9-2.07,11.5,1.25,11.71,1.38a.44.44,0,0,1,.14.6.44.44,0,0,1-.61.15s-5.45-3.22-10.94-1.29A.46.46,0,0,1,59.07,328.78Z"
           style="fill:#f0f0f0"
           id="path20" />
        <path
           d="M58.22,324.2a.43.43,0,0,1-.37-.29.43.43,0,0,1,.26-.56c5.53-2,12.8,1.39,13,1.52a.45.45,0,0,1,.16.61.44.44,0,0,1-.61.15s-7.14-3.34-12.27-1.45A.47.47,0,0,1,58.22,324.2Z"
           style="fill:#ebebeb"
           id="path21" />
        <path
           d="M66.18,187.62C63.48,206,64.41,220,63.42,231.83s-3.19,29-3.3,38c-.2,16.37-.54,33.62-.54,33.62S69,307.38,75,305.58c0,0,5.64-29,7.4-38.51,2.52-13.5,7.38-44.56,7.38-44.56l4.81,35.37s-.72,4.66.19,14.8c.53,6,3.74,24.07,3.74,24.07s9.83,3.28,15.18-1.58c0,0,2.16-33.63,2.6-39.11.62-7.77-1.58-78.11-1.07-83.23C113.13,173.2,112.8,171.55,66.18,187.62Z"
           style="fill:#C53AAE"
           id="path22" />
        <path
           d="M66.18,187.62C63.48,206,64.41,220,63.42,231.83s-3.19,29-3.3,38c-.2,16.37-.54,33.62-.54,33.62S69,307.38,75,305.58c0,0,5.64-29,7.4-38.51,2.52-13.5,7.38-44.56,7.38-44.56l4.81,35.37s-.72,4.66.19,14.8c.53,6,3.74,24.07,3.74,24.07s9.83,3.28,15.18-1.58c0,0,2.16-33.63,2.6-39.11.62-7.77-1.58-78.11-1.07-83.23C113.13,173.2,112.8,171.55,66.18,187.62Z"
           style="fill:#fff;opacity:0.4"
           id="path23" />
        <path
           d="M76,204.41c-2.45,3.52-5.74,4.06-8.32,4.33a3.65,3.65,0,0,1-1.87-.3s6.1.89,9.69-6c1.82-3.47,2.38-10.26,2.38-10.26l1.81.68A22.39,22.39,0,0,1,76,204.41Z"
           style="fill:#C53AAE;opacity:0.30000000000000004"
           id="path24" />
        <path
           d="M76,204.41c-2.45,3.52-5.74,4.06-8.32,4.33a3.65,3.65,0,0,1-1.87-.3s6.1.89,9.69-6c1.82-3.47,2.38-10.26,2.38-10.26l1.81.68A22.39,22.39,0,0,1,76,204.41Z"
           style="opacity:0.1"
           id="path25" />
        <path
           d="M89.74,222.51l2.34-13.58s9.26-2.39,13.31-8.45c-2.7,7.56-11.3,10.75-11.3,10.75l-3.21,13.19,3.67,33.46Z"
           style="fill:#C53AAE;opacity:0.30000000000000004"
           id="path26" />
        <path
           d="M89.74,222.51l2.34-13.58s9.26-2.39,13.31-8.45c-2.7,7.56-11.3,10.75-11.3,10.75l-3.21,13.19,3.67,33.46Z"
           style="opacity:0.1"
           id="path27" />
      </g>
      <g
         id="freepik--Top--inject-5">
        <path
           d="M199.84,123.55a1.46,1.46,0,0,0-1.05-.14c-3.44.53-6,3.58-8.79,5.36-.91.58-3.25,2.27-4.47,1.64-.81-.42,1.24-1.89,2.1-3.84s-1-4.14-1.72-2.67-2.78,2.57-5.38,4.88-4.07,4.67-6.33,5.8-24.61,6.8-24.61,6.8l1.2,15.6c8.22-2.45,23.58-9.15,27.21-10.6s7-1.23,12.78-4.65c2.71-1.6,6-3.77,6.61-7.12a9,9,0,0,1,.49-2.32,9.61,9.61,0,0,1,.78-1.11,5.18,5.18,0,0,0,.73-1.47,1.57,1.57,0,0,0,.09-.88c-.1-.45-.52-.78-.65-1.22a1.73,1.73,0,0,1,.38-1.42,6.67,6.67,0,0,0,.87-1.25A1.17,1.17,0,0,0,199.84,123.55Z"
           style="fill:#c8856a"
           id="path28" />
        <path
           d="M103.94,121.45c-1.26,4.86,6.93,16.6,11.21,27.39,9.72,4.42,17.22,7.8,23.58,10.16,3,1.1,4.85,1.43,7.36.57,9.07-3.08,24.9-10.27,24.9-10.27-2.48-1.54-5.17-10.26-4.18-12.45L144,142.64s-12.74-8.41-18.66-12.36C118.37,125.65,114.4,122.4,103.94,121.45Z"
           style="fill:#37474f"
           id="path29" />
        <g
           id="freepik--Chest--inject-5">
          <path
             d="M72.14,123.9s-10.27,3.46-8.1,21c.82,6.6,2.3,10.37,2.81,18.24,0,0,.15,13.86-1.15,26.33,10.78,7.4,35.05,7.88,49.9,2.29,0-22.06.19-37.44-.3-48.14A61.39,61.39,0,0,0,112.79,130a12.26,12.26,0,0,0-9.87-8.73h0L88.6,119.88C80.56,121.21,77.59,121.69,72.14,123.9Z"
             style="fill:#455a64"
             id="path30" />
        </g>
        <path
           d="M102.92,121.24h0L88.6,119.88c-8,1.33-11,1.81-16.46,4,0,0-4.67,1.58-7,8l10.67,9.44,5.16-1.17c.16-6.3,5.4-13,5.4-13a19.36,19.36,0,0,0,12,2.54c6.44-.95,4.48-6.31,4.48-6.31s6.8,2.87,10.62,8.76c-.19-.74-.39-1.47-.59-2.17A12.26,12.26,0,0,0,102.92,121.24Z"
           style="fill:#37474f"
           id="path31" />
        <g
           id="freepik--Head--inject-5">
          <path
             d="M108.77,93.05c1.55-4.46-.74-10-3.2-12.56C102,76.85,96.62,74.34,88,76.55,82.34,78,78.07,80.29,76.9,86c-3.69.32-6,6-2.12,13.86,3.21,6.52,8.5,11.46,8.85,15Z"
             id="path32" />
          <path
             d="M110,109.18c-.66,3.39-2.39,6-5.42,6.68a25.79,25.79,0,0,1-4.83.4l-.29,5.6c2.34,2,2.32,4.57.16,5.4-3.44,1.3-10.62.72-16.1-5.78l-.1-13a4.7,4.7,0,0,1-5.5.38,6.76,6.76,0,0,1-2.73-8.09c1.28-3.34,4.45-2.25,5.47-1.34s2.25,2.85,3.08,2.84a2,2,0,0,0,1.72-2,17.05,17.05,0,0,0-.54-4,9.38,9.38,0,0,0,2.62-2.92,6.85,6.85,0,0,0,.77-4.52c4-3.33,15.41-5.18,18.32-3.27,1.8,2.66,2.69,9.71,3.24,13.42A30.84,30.84,0,0,1,110,109.18Z"
             style="fill:#c8856a"
             id="path33" />
          <path
             d="M99.77,116.25c-3.4.08-10.33-1-12.29-2.73s-3-5.55-3-5.55.65,4.86,2.22,6.91S91.85,117.59,94,118s5.62.51,5.62.51Z"
             style="fill:#af6152"
             id="path34" />
          <path
             d="M96.61,97.86a1.37,1.37,0,1,1-1.48-1.32A1.39,1.39,0,0,1,96.61,97.86Z"
             style="fill:#263238"
             id="path35" />
          <path
             d="M94.35,93.44l-2.63,2.08A1.77,1.77,0,0,1,92,93.1,1.64,1.64,0,0,1,94.35,93.44Z"
             style="fill:#263238"
             id="path36" />
          <path
             d="M106.85,92.91l-3.16-1.22a1.62,1.62,0,0,1,2.13-1A1.79,1.79,0,0,1,106.85,92.91Z"
             style="fill:#263238"
             id="path37" />
          <path
             d="M106.69,96a1.37,1.37,0,1,1-1.49-1.31A1.4,1.4,0,0,1,106.69,96Z"
             style="fill:#263238"
             id="path38" />
          <polygon
             points="99.99 95.03 101.97 104.61 106.93 101.81 99.99 95.03"
             style="fill:#af6152"
             id="polygon38" />
          <path
             d="M97.37,107.15l5.8.53a2.86,2.86,0,0,1-3.09,2.72A3.06,3.06,0,0,1,97.37,107.15Z"
             style="fill:#af6152"
             id="path39" />
          <path
             d="M100.08,110.4a2.17,2.17,0,0,0,.36,0,2.65,2.65,0,0,0-3-2.22A3,3,0,0,0,100.08,110.4Z"
             style="fill:#ffa8a7"
             id="path40" />
        </g>
        <path
           d="M149.41,182.44a1.48,1.48,0,0,0-.76-.74c-3.09-1.6-6.94-.65-10.26-.88-1.08-.07-4-.09-4.57-1.32-.41-.83,2.11-.8,4-1.85s1.68-3.92.2-3.18-3.77.43-7.23.75-6,1.36-8.53.93-23.86-9.09-23.86-9.09l-8.27,13.29c8.07,2.89,24.42,6.58,28.21,7.56s6.35,3.14,13,3.82c3.13.31,7,.5,9.55-1.82a8.59,8.59,0,0,1,1.77-1.59,9.16,9.16,0,0,1,1.28-.43,5.67,5.67,0,0,0,1.47-.75,1.7,1.7,0,0,0,.59-.66c.18-.43,0-.93.19-1.37a1.69,1.69,0,0,1,1.15-.91,7,7,0,0,0,1.44-.5A1.17,1.17,0,0,0,149.41,182.44Z"
           style="fill:#c8856a"
           id="path41" />
        <path
           d="M72.14,123.9c-12.57,4.8-12.62,16-8.16,26.72A112.86,112.86,0,0,0,77.64,175c2.77,3.91,6.2,5,9,5.69,9.69,2.49,21,4.57,21,4.57-1.25-2.64,2.13-11.94,4.69-12.71l-20.89-9.27s-4.69-10.68-8-17C80.23,140.23,79,130.2,72.14,123.9Z"
           style="fill:#37474f"
           id="path42" />
      </g>
    </g>
  </g>
  <g
     id="freepik--character-3--inject-5">
    <g
       id="freepik--Ladder--inject-5">
      <path
         d="M419.86,252l-19.18,52.67c-.86,1.71,2,2.65,3.28,1.91a3.2,3.2,0,0,0,.9-1L423.71,254Z"
         style="fill:#37474f"
         id="path43" />
      <polygon
         points="393.91 323.91 364.78 307.02 365.69 302.99 394.82 319.88 393.91 323.91"
         style="fill:#37474f"
         id="polygon43" />
      <path
         d="M373.19,281.6l-17.65,48.52c-.86,1.71,2,2.65,3.28,1.91a1.76,1.76,0,0,0,.88-.95v0L376.91,284Z"
         style="fill:#37474f"
         id="path44" />
      <polygon
         points="439.68 297.36 412.13 281.39 413.5 277.64 440.59 293.33 439.68 297.36"
         style="fill:#263238"
         id="polygon44" />
      <path
         d="M448.35,328.64a1.75,1.75,0,0,0-.05-.38l-14.94-70-5.95-3.43,15.83,74a1.24,1.24,0,0,0,.62.72,4.32,4.32,0,0,0,3.9,0,1,1,0,0,0,.6-.65A1.94,1.94,0,0,0,448.35,328.64Z"
         style="fill:#455a64"
         id="path45" />
      <path
         d="M399.89,321.44,383.47,312a2.16,2.16,0,0,1-1-1.7v-.39a2.19,2.19,0,0,1,1-1.7l48.4-28.07a2.18,2.18,0,0,1,2,0l16.42,9.48a2.19,2.19,0,0,1,1,1.7v.39a2.16,2.16,0,0,1-1,1.7l-48.4,28.07A2.18,2.18,0,0,1,399.89,321.44Z"
         style="fill:#C53AAE"
         id="path46" />
      <path
         d="M451,290.32l-50.08,29-18.09-10.44a2.15,2.15,0,0,1,.69-.74l48.4-28.07a2.18,2.18,0,0,1,2,0l16.42,9.48A2,2,0,0,1,451,290.32Z"
         style="fill:#fff;opacity:0.30000000000000004"
         id="path47" />
      <path
         d="M382.78,308.91a1.94,1.94,0,0,0-.29,1v.39a2.16,2.16,0,0,0,1,1.7l16.42,9.48a2,2,0,0,0,1,.23v-2.32Z"
         style="opacity:0.25"
         id="path48" />
      <path
         d="M400.87,319.35v2.32a2,2,0,0,0,1-.23l19.7-11.37,28.7-16.7a2.16,2.16,0,0,0,1-1.7v-.39a1.94,1.94,0,0,0-.29-1Z"
         style="opacity:0.15"
         id="path49" />
      <path
         d="M405.57,345.88l-16.42-9.48a2.19,2.19,0,0,1-1-1.7v-.39a2.16,2.16,0,0,1,1-1.7l48.4-28.07a2.18,2.18,0,0,1,2,0L455.93,314a2.16,2.16,0,0,1,1,1.7v.39a2.19,2.19,0,0,1-1,1.7l-48.4,28.07A2.18,2.18,0,0,1,405.57,345.88Z"
         style="fill:#C53AAE"
         id="path50" />
      <path
         d="M456.62,314.75l-50.07,29-18.09-10.45a2,2,0,0,1,.69-.73l48.4-28.07a2.12,2.12,0,0,1,2,0L455.92,314A1.9,1.9,0,0,1,456.62,314.75Z"
         style="fill:#fff;opacity:0.30000000000000004"
         id="path51" />
      <path
         d="M388.45,333.34a2.11,2.11,0,0,0-.28,1v.39a2.19,2.19,0,0,0,1,1.7l16.42,9.48a2.06,2.06,0,0,0,1,.23v-2.32Z"
         style="opacity:0.25"
         id="path52" />
      <path
         d="M406.55,343.79v2.32a2.08,2.08,0,0,0,1-.23l19.69-11.38,28.71-16.69a2.19,2.19,0,0,0,1-1.7v-.39a2,2,0,0,0-.29-1Z"
         style="opacity:0.15"
         id="path53" />
      <path
         d="M393,295.93l-27.28-15.75a2.16,2.16,0,0,1-1-1.69v-.4a2.16,2.16,0,0,1,1-1.69l48.4-28.07a2.12,2.12,0,0,1,2,0l27.29,15.75a2.16,2.16,0,0,1,1,1.69v.39a2.16,2.16,0,0,1-1,1.7L395,295.93A2.12,2.12,0,0,1,393,295.93Z"
         style="fill:#C53AAE"
         id="path54" />
      <path
         d="M394,293.85v2.32a2,2,0,0,0,1-.24l19.7-11.37,28.71-16.7a2.16,2.16,0,0,0,1-1.7v-.39a2,2,0,0,0-.29-1Z"
         style="opacity:0.15"
         id="path55" />
      <path
         d="M365.07,277.13a2,2,0,0,0-.29,1v.4a2.16,2.16,0,0,0,1,1.69L393,295.93a2,2,0,0,0,1,.24v-2.32Z"
         style="opacity:0.25"
         id="path56" />
      <path
         d="M444.1,264.81l-50.08,29-28.95-16.72a2.11,2.11,0,0,1,.69-.73l48.4-28.07a2.18,2.18,0,0,1,2,0l27.29,15.74A2,2,0,0,1,444.1,264.81Z"
         style="fill:#fff;opacity:0.30000000000000004"
         id="path57" />
      <path
         d="M389.53,293.9l13,60.92a1.11,1.11,0,0,1,0,.4,1.49,1.49,0,0,1,0,.19,1.18,1.18,0,0,1-.6.65,3.9,3.9,0,0,1-1.95.46,3.8,3.8,0,0,1-1.95-.46,1.41,1.41,0,0,1-.56-.51l-.06-.19,0-.09-13.88-64.8"
         style="fill:#455a64"
         id="path58" />
    </g>
    <g
       id="freepik--character--inject-5">
      <path
         id="freepik--shadow--inject-5"
         d="M429.76,287.33a36.36,36.36,0,0,0-6.12-2.45l-25.11,14.56a2.29,2.29,0,0,0,.29.18c4.82,2.53,7.12,4.17,11.73,5.63a21.53,21.53,0,0,0,8.35.89c6.36-.52,9.77-3.25,13.34-6.84a8.77,8.77,0,0,0,2.64-5.85C434.89,290.65,432.26,288.6,429.76,287.33Zm-23.5-.58,17.95-10.4c0-.17.07-.34.11-.51a3.45,3.45,0,0,0,.1-1.46,2.72,2.72,0,0,0-.67-1.16,13.2,13.2,0,0,0-5.17-3.1c-6.12-2.45-12.71-4.69-19.2-3.51a31.72,31.72,0,0,0-8.07,2.92A97.57,97.57,0,0,0,381,275.32c-2,1.27-4.8,3.61-3.59,6.3,2.08,4.63,8.9,5.55,13.28,5.79a88.1,88.1,0,0,0,13-.69A10.78,10.78,0,0,1,406.26,286.75Z"
         style="opacity:0.15" />
      <g
         id="freepik--bottom--inject-5">
        <path
           d="M412.39,229.19c1.76,12.25,4.78,31,6.67,45.51.31,1.7-.19,1.95-.1,3.08.13,1.42,11.27,1.84,11.17.09a6.93,6.93,0,0,0,.36-2.51c-.09-7.49,2.72-20.77,3.24-32.72.39-9-1.52-13.46-2.69-18,0,0,2.85-26.77,3.58-52.5a46,46,0,0,0-8-27.65l-21.15,3.64s2.68,28.51,4.3,54.71C410.21,209.75,410.63,216.94,412.39,229.19Z"
           style="fill:#ffbda7"
           id="path59" />
        <path
           d="M394.63,152.53c-2.64,5.22-13.61,29.93-18.32,46.15-1.14,3.9-2.58,6.57,2.35,18.73,2.47,6.09,11.61,26.65,14.68,34.92a36.07,36.07,0,0,1,2.11,7.9c4.64,3,12.33.81,12.33.81s-1-5.67-1.34-8.3c-1.59-13.92-1-34.59-9.91-44.87,6.73-11.09,26.09-42.24,30.41-61.62Z"
           style="fill:#ffbda7"
           id="path60" />
        <path
           d="M414.86,245.67c3.48,2.21,10.19,1.92,12.63,1.76a13.92,13.92,0,0,0,6.05-1.6,65.14,65.14,0,0,0-1.2-21.19s1.64-19.74,4.91-50.54c.43-4.09,2-11.44.07-19-1.83-7.29-7-15.56-7.33-18.66l-35.79,1.3-1.57,10.65c-2.64,5.22-12.84,32.83-17.43,49.08-1.84,6.48-1.75,9.52,2.68,19.56,2.16,4.89,4.75,11.11,7.81,17.89,7,1.83,18.3-4.31,18.27-8.27-1.34-7.27-2.12-12.28-6.67-19.19,3.1-5.12,11-18.65,11-18.65.61,6.95.53,8.76,1,16.46.45,6.92,1.17,12,2.58,22.26C412.88,234.5,413.78,241.17,414.86,245.67Z"
           style="fill:#37474f"
           id="path61" />
        <path
           d="M433.22,249.56l.48-5.3c-5.09,3.59-15.71,2.65-19.16,0l.91,5.3C419.32,252.25,430.08,251.9,433.22,249.56Z"
           style="fill:#263238"
           id="path62" />
        <path
           d="M404.86,231.6l-1-5.58c-4.19,5.15-15.33,7.21-19.63,5.49l2.21,5.6C391.16,238.75,402.32,234.89,404.86,231.6Z"
           style="fill:#263238"
           id="path63" />
        <path
           d="M408.3,188.78l-1.37-18.05a20.93,20.93,0,0,1-9.64-10.06s.69,7.58,7,11.58L406.16,186l-8.87,21.81Z"
           style="fill:#263238"
           id="path64" />
        <path
           d="M433.21,284.47a7.42,7.42,0,0,1-.18,1.91c-.37.81-1.42,1.13-2.07,2.56-1,2.32-.83,5.54-1.49,8.65a8.38,8.38,0,0,1-5.19,6,16.51,16.51,0,0,1-10.62.83c-2.37-.61-3.08-1.45-3.51-2a9,9,0,0,1-.2-2.09s3.65-1.66,4.86-2.06S433.21,284.47,433.21,284.47Z"
           style="fill:#263238"
           id="path65" />
        <path
           d="M433.21,284.47a5.35,5.35,0,0,1-1.18,1.34,13.45,13.45,0,0,0-1.65,1.55c-1,1.2-1,2.59-1.34,4.1-.24,1.15-.25,2.34-.46,3.5-.35,2-.48,3.8-1.86,5.23s-4.2,2.16-6.23,2.43c-5.7.75-8.19.06-9.68-1.48-1.14-1.17-1-2.8,1.84-6.32a7.45,7.45,0,0,0,3.09-3.4c1.76-4.05,2.48-8.29,2.47-16.7,0-.89,4.38-1,6.77-.15a.78.78,0,0,1,.39.21c.33.36.18.93.34,1.36a1,1,0,0,0,.68.66,1.21,1.21,0,0,0,1.15-.73,6,6,0,0,1,.69-1.27,2,2,0,0,1,1.19-.56,6,6,0,0,1,1.34,0,19.28,19.28,0,0,0,1.37,5.2A7.75,7.75,0,0,1,433.21,284.47Z"
           style="fill:#455a64"
           id="path66" />
        <path
           d="M427.38,299.34a10.68,10.68,0,0,0-6.82-5.5c-5.15-1.49-7.7.61-8.94,1.92-1.47,1.56-2.38,4.17-1.17,5.54,1.73,2,4.28,2.31,9.14,1.93C425.81,302.75,427.38,299.34,427.38,299.34Z"
           style="fill:#fafafa"
           id="path67" />
        <path
           d="M409.18,267.87a4.71,4.71,0,0,1,.14,1.9c-.36.81-1.18,1.6-4.7,3.39a9.89,9.89,0,0,0-3.73,4,14.22,14.22,0,0,1-6.55,5.55,19.63,19.63,0,0,1-11.59,1c-4.82-1-5.15-3.82-5.15-3.82s-.2-2.69,1-3.09S409.18,267.87,409.18,267.87Z"
           style="fill:#263238"
           id="path68" />
        <path
           d="M407.79,258.75c-.07,2.92,2.11,5.57,1.39,9.12-1.39,3.34-5.88,3.31-7.88,6s-4.39,6.77-10.75,7.9-11.12-1-12.26-2.8.07-3.6,4-6,10.41-9.13,10.42-9.14a15.26,15.26,0,0,0,1.54-2.23c.51-.91.52-1.9.19-3.91,1.15-.48,5.31-1.45,8.29.94.44.35.49,1.11.69,1.63a1.26,1.26,0,0,0,.3.53,1,1,0,0,0,.79.2,2.5,2.5,0,0,0,1.52-.68c.55-.54.29-1.86.87-2.37.34-.3.75-.23.86,0A2.86,2.86,0,0,1,407.79,258.75Z"
           style="fill:#455a64"
           id="path69" />
        <path
           d="M394.69,280.31a8.06,8.06,0,0,0-4.56-7c-4.73-2.53-7.66-1-9.14,0-1.77,1.22-4.31,3.78-2.83,5.71s4.18,3.11,9.06,3.26A11.65,11.65,0,0,0,394.69,280.31Z"
           style="fill:#fafafa"
           id="path70" />
      </g>
      <g
         id="freepik--top--inject-5">
        <g
           id="freepik--Hair--inject-5">
          <path
             id="freepik--hair--inject-5"
             d="M413.49,46c3-2.75,10.72-2.58,14.26,2.27s.68,4.87,6.17,9.81a9.69,9.69,0,0,1,3.18,6.87,8.68,8.68,0,0,1-1,4.47c-.78,1.31-1.46,2-.61,3.62,1,1.93,2.8,3.32,4.17,5,1.55,1.9,2.6,4.55,1.63,6.79-.57,1.31-1.76,2.33-2.06,3.72a7.08,7.08,0,0,0,.24,2.92,10.75,10.75,0,0,1-.06,5.63,8.21,8.21,0,0,1-4,4.38,15.35,15.35,0,0,1-5.81,1.56,27.33,27.33,0,0,1-14.84-2.84,17.87,17.87,0,0,1-6.54-5.33,11.43,11.43,0,0,1-2.11-5.46c-.16-1.73.82-2.67,1-4.28.38-3.5-1.46-7.06-1.71-10.55-.42-6-2.15-10.73.62-15.14S409.76,49.4,413.49,46Z"
             style="fill:#263238" />
          <path
             d="M423.64,56c2.88-2.31-2.38-7.75-6.3-8.38s-3.76,2.54-3.76,2.54Z"
             style="fill:#C53AAE"
             id="path71" />
        </g>
        <g
           id="freepik--chest--inject-5">
          <path
             d="M317.36,118.31l-1.81-3.51a1.82,1.82,0,0,1,1.92-.81c1.4.2,2.95,2.56,5.74,3.45s6.66,1.14,6.58.7-2.52-2.52-2.73-4.13.85-2.44,2.68-1a44.12,44.12,0,0,0,5.69,3.75c2.9,1.7,5,3.41,7.42,3.58h0l23.73-2.66s14.75-13.72,19.85-18.4c4.73-4.34,6.21-6.48,12.92-7.21l-5.27,22.27S378.81,126.48,375.49,129s-5,2.9-11.59,2.81c-4-.06-21.17-.8-23.79-.79-3.11,0-4.28.43-6.66.26a27.38,27.38,0,0,1-9.2-2.11c-3.72-1.59-5.36-3.95-6.81-7.28S317.36,118.31,317.36,118.31Z"
             style="fill:#ffbda7"
             id="path72" />
          <path
             d="M394.2,137.71c-.69-6.85-1.8-11.87-2-14.05-5.48-4.51-5.66-10.9-2.73-17.15,2.85-6.09,8.78-13.07,9.88-14.47A88.4,88.4,0,0,1,411,91.19,58.18,58.18,0,0,1,425.71,93c4.13,4.61,7.22,8,7.13,17.66-.08,9.32-3.89,14-2.85,25.76C424.05,140.8,402.28,141.87,394.2,137.71Z"
             style="fill:#C53AAE"
             id="path73" />
          <path
             d="M395.65,145.1c-2.31.25-4.63-.85-7.77-1.33s-5.27-.34-6.58-1.1-1.63,1.85,0,2.92,3.94,1.18,3.53,1.92c-.63,1.09-3.27.94-4.26,1-3.06,0-6.54-1.08-9.45.22a1.32,1.32,0,0,0-.74.63,1.09,1.09,0,0,0,.5,1.2,6.6,6.6,0,0,0,1.29.53,1.55,1.55,0,0,1,1,.9c.12.41,0,.87.1,1.27a1.42,1.42,0,0,0,.51.63,5.13,5.13,0,0,0,1.29.77,4.29,4.29,0,0,1,2.69,2c2.15,2.26,5.75,2.32,8.64,2.21,6.17-.24,8.64-2.07,12.17-2.75s18.71-3.14,26.27-5.32c7.92-2.29,6.19-3.89,7.46-12s2.25-24.71,2.84-31.19c.67-7.43-.85-13-9.43-14.63-4.46,1.4-7.78,10.35-6.21,22.76l-2,21.79S398,144.85,395.65,145.1Z"
             style="fill:#ffbda7"
             id="path74" />
        </g>
        <g
           id="freepik--head--inject-5">
          <path
             d="M418.72,85.68c1.56-4.48,3.81-5.33,6.72-9,3.38-4.2,5.15-15.08-1.77-20.93-3.84-8.65-13.84-7.73-21.13-6.56-9.53,1.54-17.62,10.3-9.4,20.28Z"
             style="fill:#37474f"
             id="path75" />
          <path
             d="M424.8,69.55c-1.49-1-3.48-1.14-4.63,1.12-.31.6-1.3,2.28-1.94,2.47-2,.59-3.34-2.91-3.54-4.38a39.45,39.45,0,0,0-.48-4.37,7.65,7.65,0,0,1-5-4.25c-.46-.89-.24-1.19-1.19-1a20.85,20.85,0,0,1-2.95.48,14.83,14.83,0,0,1-7.2-.81c-.5-.23-1-.88-1.64-.75-.44.09-.78.68-1,1A10.63,10.63,0,0,0,394,61.81,29.65,29.65,0,0,0,393.1,72a2.81,2.81,0,0,0,0,.29c.44,9.27,2.83,13.09,5.45,14.33,1.62.76,3.55,1,6.64.64l0,5.27s-5.59,6.35-3.39,11.15c6.77-.52,15.05-7.37,16.82-11.28l.1-14.07s1.44,2.25,4.65-.25C426.06,76,427.14,71.1,424.8,69.55Z"
             style="fill:#ffbda7"
             id="path76" />
          <path
             d="M405.49,70.17a1.27,1.27,0,0,0,1.12,1.36A1.19,1.19,0,0,0,408,70.46a1.27,1.27,0,0,0-1.12-1.37A1.19,1.19,0,0,0,405.49,70.17Z"
             style="fill:#263238"
             id="path77" />
          <path
             d="M394.28,65.18l3.07-1.12a1.56,1.56,0,0,0-2-1A1.72,1.72,0,0,0,394.28,65.18Z"
             style="fill:#263238"
             id="path78" />
          <path
             d="M406.25,64.27l3.05,1.17a1.56,1.56,0,0,0-.88-2.1A1.71,1.71,0,0,0,406.25,64.27Z"
             style="fill:#263238"
             id="path79" />
          <path
             d="M406.72,77.91l-5.32,1.82a2.82,2.82,0,0,0,3.83,1.65A2.65,2.65,0,0,0,406.72,77.91Z"
             style="fill:#b16668"
             id="path80" />
          <path
             d="M403.68,81.57a3,3,0,0,1,2.92-2.68,2.48,2.48,0,0,1,.27,0,2.47,2.47,0,0,1-1.64,2.46A3.24,3.24,0,0,1,403.68,81.57Z"
             style="fill:#f28f8f"
             id="path81" />
          <path
             d="M394.84,69.84A1.27,1.27,0,0,0,396,71.2a1.19,1.19,0,0,0,1.34-1.07,1.27,1.27,0,0,0-1.12-1.36A1.19,1.19,0,0,0,394.84,69.84Z"
             style="fill:#263238"
             id="path82" />
          <path
             d="M405.2,87.22c3.27-.5,10.18-2.29,11.37-4.86A7.68,7.68,0,0,1,413.92,86c-2.08,1.6-8.71,3-8.71,3Z"
             style="fill:#f0997a"
             id="path83" />
          <path
             d="M412.1,66.45l9.59,2.63a2.68,2.68,0,0,0-1.44,1.44l-8.17-2.09Z"
             style="fill:#263238"
             id="path84" />
          <path
             d="M390.6,66.9a2.43,2.43,0,0,0,.57,1.27,1.06,1.06,0,0,1,.23.45,22.8,22.8,0,0,0,.81,3.42,3.76,3.76,0,0,0,3.68,2.42,5.42,5.42,0,0,0,1.26-.11l.09,0a3.62,3.62,0,0,0,1-.4l.06,0,.09,0,.11-.08.1-.08.11-.09.1-.09a1.89,1.89,0,0,0,.2-.2,4.56,4.56,0,0,0,.81-1.3c.53-1.2.39-2.87,1.27-3.07h.21c1.19,0,1.06,1.84,1.73,3.14a4.45,4.45,0,0,0,4.35,2.6h.33l.26,0a5.12,5.12,0,0,0,.62-.09l.2-.05.19,0,.11,0a3,3,0,0,0,.7-.33,1.88,1.88,0,0,0,.23-.16,3.44,3.44,0,0,0,.41-.35,4.18,4.18,0,0,0,.77-1.21,21.64,21.64,0,0,0,.7-3.4,1.34,1.34,0,0,1,.2-.49,2.36,2.36,0,0,0,.57-1.22,1.06,1.06,0,0,0-.72-1.08l-.63-.08a19.46,19.46,0,0,0-6.27.09c-2,.55-2.67,1.19-3.78,1.17s-1.71-.68-3.6-1.29a17.31,17.31,0,0,0-5.87-.29l-.59.07A1,1,0,0,0,390.6,66.9Zm13.09,1.22a1.5,1.5,0,0,1,.56-.46l.11-.06.05,0,.28-.13.26-.11a8.51,8.51,0,0,1,.85-.27l.34-.08a8.3,8.3,0,0,1,.87-.14l.2,0a5,5,0,0,1,3.55.69c.45.4.25,2.17.07,3.07v.07a.64.64,0,0,0,0,.07,3.47,3.47,0,0,1-.08.36l-.06.22h0c0,.12-.08.25-.13.38h0s0,.09,0,.13l0,.08a.59.59,0,0,1,0,.08.54.54,0,0,1,0,.11l-.06.12-.08.12a.57.57,0,0,1-.08.13,3,3,0,0,1-2.67,1.27,3.67,3.67,0,0,1-2.83-1.07h0a4,4,0,0,1-.93-1.82A4.16,4.16,0,0,1,403.69,68.12Zm-11.27-.91a1.47,1.47,0,0,1,.47-.3l0,0,.2-.08.13,0,.11,0,.07,0h0l.11,0,.44-.07.24,0H395c.28,0,.57,0,.89.08A5.39,5.39,0,0,1,399.07,68a4.36,4.36,0,0,1,.12,2.73,5.49,5.49,0,0,1-.17.67l0,0a.64.64,0,0,1,0,.07l0,0,0,.08s-.05.11-.08.16a.61.61,0,0,1-.07.14l0,.05a.47.47,0,0,1-.05.1l-.05.08h0a3,3,0,0,1-2.84,1.31,3.46,3.46,0,0,1-1.43-.34,4.1,4.1,0,0,1-1.88-2.92C392.29,69.38,392,67.6,392.42,67.21Z"
             style="fill:#263238"
             id="path85" />
          <path
             d="M401.84,69.07l-.61,8.1-4.55-1.39,4.59-6.87A.92.92,0,0,1,401.84,69.07Z"
             style="fill:#f0997a"
             id="path86" />
        </g>
      </g>
    </g>
  </g>
</svg>
