<?xml version="1.0" encoding="UTF-8" standalone="no"?>
<svg
   viewBox="0 0 750 500"
   version="1.1"
   id="svg146"
   sodipodi:docname="friend.svg"
   inkscape:version="1.4 (86a8ad7, 2024-10-11)"
   xmlns:inkscape="http://www.inkscape.org/namespaces/inkscape"
   xmlns:sodipodi="http://sodipodi.sourceforge.net/DTD/sodipodi-0.dtd"
   xmlns="http://www.w3.org/2000/svg"
   xmlns:svg="http://www.w3.org/2000/svg">
  <defs
     id="defs146" />
  <sodipodi:namedview
     id="namedview146"
     pagecolor="#505050"
     bordercolor="#ffffff"
     borderopacity="1"
     inkscape:showpageshadow="0"
     inkscape:pageopacity="0"
     inkscape:pagecheckerboard="1"
     inkscape:deskcolor="#505050"
     inkscape:zoom="3.0575297"
     inkscape:cx="361.0758"
     inkscape:cy="280.45516"
     inkscape:window-width="2400"
     inkscape:window-height="1321"
     inkscape:window-x="6391"
     inkscape:window-y="642"
     inkscape:window-maximized="1"
     inkscape:current-layer="freepik--character-2--inject-36" />
  <g
     id="freepik--character-2--inject-36">
    <path
       d="M404.17,358.67c2.61,19.36,8.89,38.18,8.1,57.71-.18,4.69-.79,9.85-4.14,13-2.47,2.33-5.93,3.11-9.22,3.73a318.32,318.32,0,0,1-127.65-1.74c-5.62-1.23-11.8-3-14.79-8.1-2-3.42-2.12-7.65-2.17-11.66l-.36-29c-.19-15.77-.37-31.65,2.24-47.19s8.23-30.9,18.38-42.72,25.25-19.68,40.53-18.51C315.09,274.18,398.51,316.65,404.17,358.67Z"
       style="fill:#455a64"
       id="path71" />
    <path
       d="M371.15,282.78s9.07,20.22,17.07,20.76,18.5,0,18.5,0l1.33-13.34s-14.49-2.54-15.91-4.09-10.59-14-10.59-14Z"
       style="fill:#eb996e"
       id="path72" />
    <path
       d="M390.62,439.29l-.47-8.9-16.82.78.53,13h1.05c4.65.05,23.67-.11,26.73-1.18C405.06,441.82,390.62,439.29,390.62,439.29Z"
       style="fill:#C53AAE"
       id="path73" />
    <path
       d="M373.61,443.81a.94.94,0,0,0,.29,0h3.9c2.58,0,6.16-.11,10.1-.29s7.52-.41,10.1-.62l3.05-.26.83-.09.29,0a1.2,1.2,0,0,0-.3,0l-.83,0-3.05.2c-2.59.17-6.15.38-10.1.56s-7.51.28-10.1.34l-3.06.08-.83,0Z"
       style="fill:#263238"
       id="path76" />
    <path
       d="M396.3,443.24a6.74,6.74,0,0,1,.51-1.47,6.32,6.32,0,0,1,1-1.21,2.26,2.26,0,0,0-1.17,1.11A2.22,2.22,0,0,0,396.3,443.24Z"
       style="fill:#263238"
       id="path77" />
    <path
       d="M391.22,441s.28-.27.5-.66.38-.74.33-.76-.27.27-.5.66S391.17,441,391.22,441Z"
       style="fill:#263238"
       id="path78" />
    <path
       d="M389.83,440.32s.3-.15.57-.42.48-.52.44-.56-.3.15-.58.42S389.79,440.28,389.83,440.32Z"
       style="fill:#263238"
       id="path79" />
    <path
       d="M388.9,438.79a2,2,0,0,0,.88.07,2.13,2.13,0,0,0,.87-.13c0-.06-.39-.09-.88-.07S388.89,438.73,388.9,438.79Z"
       style="fill:#263238"
       id="path80" />
    <path
       d="M388.55,437.69a2.49,2.49,0,0,0,2,.06,5.57,5.57,0,0,0-1,0A5.76,5.76,0,0,0,388.55,437.69Z"
       style="fill:#263238"
       id="path81" />
    <path
       d="M391.73,439.49a2.84,2.84,0,0,0,1.08-.05,6.36,6.36,0,0,0,1.14-.31,3.62,3.62,0,0,0,.65-.29.66.66,0,0,0,.25-.35.42.42,0,0,0-.18-.42,2,2,0,0,0-2.43.69,1.9,1.9,0,0,0-.32.73.59.59,0,0,0,0,.29,3.1,3.1,0,0,1,.46-.94,1.92,1.92,0,0,1,.89-.64,1.7,1.7,0,0,1,1.29,0c.18.12.12.32-.06.45a3,3,0,0,1-.6.28,7.07,7.07,0,0,1-1.1.34C392.14,439.44,391.73,439.46,391.73,439.49Z"
       style="fill:#263238"
       id="path82" />
    <path
       d="M392,439.53a1,1,0,0,0,.09-.75,1.67,1.67,0,0,0-.33-.76,1.08,1.08,0,0,0-.92-.51.42.42,0,0,0-.31.51,1.12,1.12,0,0,0,.2.47,3.52,3.52,0,0,0,.54.63,1.53,1.53,0,0,0,.64.4s-.23-.18-.54-.51a3.71,3.71,0,0,1-.48-.62c-.16-.22-.28-.62,0-.68s.56.21.73.42a1.74,1.74,0,0,1,.34.68A4.61,4.61,0,0,1,392,439.53Z"
       style="fill:#263238"
       id="path83" />
    <path
       d="M373.75,439.24s.48-.07,1.24,0a5.32,5.32,0,0,1,2.76,1,5.46,5.46,0,0,1,1.81,2.29c.28.71.33,1.19.37,1.18a1.1,1.1,0,0,0,0-.34,4,4,0,0,0-.22-.89,5,5,0,0,0-1.82-2.4,5.25,5.25,0,0,0-2.87-1,4.56,4.56,0,0,0-.93.07A.91.91,0,0,0,373.75,439.24Z"
       style="fill:#263238"
       id="path84" />
    <path
       d="M375.18,432.22a28.43,28.43,0,0,0,0,3.43,28.12,28.12,0,0,0,.21,3.43,28.49,28.49,0,0,0,0-3.43A28.12,28.12,0,0,0,375.18,432.22Z"
       style="fill:#263238"
       id="path85" />
    <path
       d="M382,442.05a9.35,9.35,0,0,0,2.47.13,9.5,9.5,0,0,0,2.45-.3c0-.06-1.1.05-2.46.1S382,442,382,442.05Z"
       style="fill:#263238"
       id="path86" />
    <path
       d="M378.7,442.2s.1.22.23.47.19.46.25.46.08-.27-.07-.55S378.74,442.16,378.7,442.2Z"
       style="fill:#263238"
       id="path87" />
    <path
       d="M377.39,440.72s.08.21.26.38.36.27.4.23-.08-.21-.26-.38S377.43,440.68,377.39,440.72Z"
       style="fill:#263238"
       id="path88" />
    <path
       d="M375.58,440.1c0,.06.24,0,.49.12s.44.2.48.16-.11-.26-.42-.35S375.56,440.05,375.58,440.1Z"
       style="fill:#263238"
       id="path89" />
    <path
       d="M374.3,439.83c0,.05.08.13.23.18s.27,0,.29,0-.09-.13-.23-.18S374.32,439.78,374.3,439.83Z"
       style="fill:#263238"
       id="path90" />
    <path
       d="M427.72,388.82l-4.48-7.72-14.66,8.23L415,400.69l.94-.45c4.17-2.05,21.07-10.71,23.32-13C441.77,384.6,427.72,388.82,427.72,388.82Z"
       style="fill:#C53AAE"
       id="path91" />
    <path
       d="M414.61,400.47a1.12,1.12,0,0,0,.27-.11l.75-.36,2.73-1.38c2.3-1.19,5.45-2.86,8.89-4.79s6.51-3.73,8.72-5.07l2.61-1.61.7-.44.23-.17a1.56,1.56,0,0,0-.26.13l-.72.42-2.63,1.55c-2.23,1.3-5.31,3.09-8.75,5s-6.58,3.62-8.86,4.83l-2.7,1.44-.73.39Z"
       style="fill:#263238"
       id="path94" />
    <path
       d="M434.6,389.79a6.7,6.7,0,0,1-.22-1.53,6.6,6.6,0,0,1,.33-1.52,2.69,2.69,0,0,0-.11,3.05Z"
       style="fill:#263238"
       id="path95" />
    <path
       d="M429,390.05c.06,0,.12-.36.15-.82a1.86,1.86,0,0,0-.06-.82c-.06,0-.12.36-.15.81A1.89,1.89,0,0,0,429,390.05Z"
       style="fill:#263238"
       id="path96" />
    <path
       d="M427.49,390.09c.05,0,.2-.26.32-.63s.18-.68.13-.69-.2.26-.32.63S427.44,390.07,427.49,390.09Z"
       style="fill:#263238"
       id="path97" />
    <path
       d="M426,389.14a2.06,2.06,0,0,0,.82-.33c.42-.23.75-.46.72-.51s-.39.1-.82.33S425.93,389.09,426,389.14Z"
       style="fill:#263238"
       id="path98" />
    <path
       d="M425.15,388.32a1.74,1.74,0,0,0,1-.23,1.77,1.77,0,0,0,.82-.61,4.78,4.78,0,0,0-.9.43A5.12,5.12,0,0,0,425.15,388.32Z"
       style="fill:#263238"
       id="path99" />
    <path
       d="M428.81,388.5a3.33,3.33,0,0,0,.94-.53,7.26,7.26,0,0,0,.88-.78,3.76,3.76,0,0,0,.44-.56.58.58,0,0,0,.06-.42.41.41,0,0,0-.35-.29,2,2,0,0,0-1.85,1.7,1.93,1.93,0,0,0,0,.79.84.84,0,0,0,.12.27,3.17,3.17,0,0,1,0-1,2,2,0,0,1,.51-1,1.66,1.66,0,0,1,1.17-.55c.21,0,.25.23.14.42a3.42,3.42,0,0,1-.4.52,8.58,8.58,0,0,1-.83.8C429.15,388.27,428.79,388.47,428.81,388.5Z"
       style="fill:#263238"
       id="path100" />
    <path
       d="M429.08,388.41a1.07,1.07,0,0,0-.26-.71,1.77,1.77,0,0,0-.65-.53,1.08,1.08,0,0,0-1.05,0,.42.42,0,0,0-.05.59,1,1,0,0,0,.4.33,3,3,0,0,0,.77.32,1.56,1.56,0,0,0,.75.07s-.28-.06-.71-.21a4.13,4.13,0,0,1-.72-.34c-.24-.12-.53-.43-.32-.6a1,1,0,0,1,.85,0,1.75,1.75,0,0,1,.61.46A4.69,4.69,0,0,1,429.08,388.41Z"
       style="fill:#263238"
       id="path101" />
    <path
       d="M412.64,396.33s.4-.27,1.11-.57a5.54,5.54,0,0,1,2.91-.36,5.59,5.59,0,0,1,2.66,1.24c.58.5.84.9.87.88a1,1,0,0,0-.17-.29,4,4,0,0,0-.6-.69,5.19,5.19,0,0,0-2.72-1.34,5.41,5.41,0,0,0-3,.43,4.13,4.13,0,0,0-.79.48A1.22,1.22,0,0,0,412.64,396.33Z"
       style="fill:#263238"
       id="path102" />
    <path
       d="M410.72,389.44a28,28,0,0,0,1.57,3.05,28.31,28.31,0,0,0,1.76,3,31.82,31.82,0,0,0-1.58-3.05A29.41,29.41,0,0,0,410.72,389.44Z"
       style="fill:#263238"
       id="path103" />
    <path
       d="M421.3,395.14a14,14,0,0,0,4.31-2.36s-1,.55-2.15,1.2S421.27,395.09,421.3,395.14Z"
       style="fill:#263238"
       id="path104" />
    <path
       d="M418.42,396.75c0,.06.19.16.42.32s.38.33.43.29-.06-.27-.31-.45S418.43,396.7,418.42,396.75Z"
       style="fill:#263238"
       id="path105" />
    <path
       d="M416.58,396c0,.06.16.15.4.22s.44.08.46,0-.17-.16-.4-.22S416.59,396,416.58,396Z"
       style="fill:#263238"
       id="path106" />
    <path
       d="M414.68,396.28c0,.05.23-.07.49-.11s.48,0,.5-.07-.22-.19-.54-.13S414.64,396.25,414.68,396.28Z"
       style="fill:#263238"
       id="path107" />
    <path
       d="M413.41,396.61c0,.06.13.09.28.06s.27-.08.26-.13-.14-.09-.29-.07S413.4,396.56,413.41,396.61Z"
       style="fill:#263238"
       id="path108" />
    <polygon
       points="363.3 309.11 316.62 316.26 318.25 310.91 362.69 307.04 363.3 309.11"
       style="opacity:0.30000000000000004"
       id="polygon108" />
    <path
       d="M345.71,199.52a13.13,13.13,0,0,0-14.63,6c-1.92,3.47-2.12,7.68-4.09,11.12-1.4,2.44-3.59,4.32-5.35,6.52s-3.13,5-2.45,7.73c.64,2.56,3,4.68,2.76,7.3-.24,2.46-2.74,4.23-3.07,6.67-.39,2.88,2.56,5.33,5.49,5.57s5.72-1.08,8.36-2.35,5.46-2.55,8.37-2.24c3.4.36,6.14,2.77,9.19,4.27a18.48,18.48,0,0,0,19.82-2.62c2.08-1.83,3.81-4.57,3.08-7.22-.68-2.48-3.25-4-4.14-6.44-1.33-3.58,1.47-7.54.73-11.29-1-5-7.48-6.9-10.12-11.31-1.27-2.12-1.55-4.69-2.69-6.87s-3.83-4-6-2.89"
       style="fill:#263238"
       id="path109" />
    <path
       d="M351.23,245.58c-.47-1.78-.43-9.43-.43-9.43s6.74-1.35,6.54-8.25-2-22.71-2-22.71l-13-5-10,13.14,2.22,33.39Z"
       style="fill:#ffbe9d"
       id="path110" />
    <path
       d="M355.74,216.79a.88.88,0,0,1-.78,1,.89.89,0,0,1-.95-.8.87.87,0,1,1,1.73-.16Z"
       style="fill:#263238"
       id="path111" />
    <path
       d="M355.72,215.83c-.1.12-.79-.37-1.72-.34s-1.6.55-1.7.43,0-.27.33-.51a2.26,2.26,0,0,1,1.35-.5,2.31,2.31,0,0,1,1.38.42C355.66,215.56,355.77,215.77,355.72,215.83Z"
       style="fill:#263238"
       id="path112" />
    <path
       d="M345.42,217.67a.87.87,0,0,1-.78,1,.88.88,0,1,1,.78-1Z"
       style="fill:#263238"
       id="path113" />
    <path
       d="M345.4,216.76c-.1.12-.79-.37-1.72-.34s-1.6.55-1.7.43,0-.27.33-.51a2.26,2.26,0,0,1,1.35-.5,2.31,2.31,0,0,1,1.38.42C345.34,216.49,345.45,216.7,345.4,216.76Z"
       style="fill:#263238"
       id="path114" />
    <path
       d="M349.48,224.45a5.38,5.38,0,0,1,1.51-.34c.24,0,.46-.1.49-.27a1.44,1.44,0,0,0-.2-.74l-.82-1.91a33.79,33.79,0,0,1-1.87-5,35.48,35.48,0,0,1,2.24,4.82c.28.67.54,1.31.79,1.92a1.53,1.53,0,0,1,.18,1,.58.58,0,0,1-.37.38,1.31,1.31,0,0,1-.41.07A6.09,6.09,0,0,1,349.48,224.45Z"
       style="fill:#263238"
       id="path115" />
    <path
       d="M350.36,236.15a16.74,16.74,0,0,1-9.23-2.27s2.48,4.86,9.23,4Z"
       style="fill:#eb996e"
       id="path116" />
    <path
       d="M349.32,226.9a1.76,1.76,0,0,0-1.17-1.24,1.47,1.47,0,0,0-1.2.1,1,1,0,0,0-.48,1.06,1.17,1.17,0,0,0,1,.81,3.26,3.26,0,0,0,1.38-.19.86.86,0,0,0,.35-.16.33.33,0,0,0,.13-.34"
       style="fill:#eb996e"
       id="path117" />
    <path
       d="M346.83,224.6c-.06,0-.15.27-.09.71a2.47,2.47,0,0,0,2.54,2.05c.46,0,.7-.17.69-.23s-1.1,0-2-.72S347,224.59,346.83,224.6Z"
       style="fill:#263238"
       id="path118" />
    <path
       d="M355.8,204.39a8.33,8.33,0,0,1-7.73,7.83l1.59-4.25a19.64,19.64,0,0,1-5.34,5.48c-2.21,1.32-5.22,1.67-7.3.16-.51,1.73-.36,3.59-.82,5.34s-1.33,8.87-3.14,8.73-3.35-7.12-3.89-8.69a14.52,14.52,0,0,1,2.33-13,17.83,17.83,0,0,1,14.12-7.14,12.34,12.34,0,0,1,6.93,1.87,9.28,9.28,0,0,1,3.7,5"
       style="fill:#263238"
       id="path119" />
    <path
       d="M367.39,234.72a1.49,1.49,0,0,0,.47-.14,6.53,6.53,0,0,0,1.24-.63,9.06,9.06,0,0,0,3.37-3.78,8.5,8.5,0,0,0,.11-7.4,9.44,9.44,0,0,0-2.82-3.51,9,9,0,0,0-4.47-1.85,3.82,3.82,0,0,1-2.08-.8,3.33,3.33,0,0,1-.91-1.92c-.22-1.45.25-2.9.31-4.34a6.23,6.23,0,0,0-1.1-3.91,6.36,6.36,0,0,0-2.76-2.24c-1-.44-1.94-.7-2.74-1a10.84,10.84,0,0,1-2-.85,7,7,0,0,1-1.4-1.17,1.71,1.71,0,0,0,.26.41,4.47,4.47,0,0,0,1,.93,10.62,10.62,0,0,0,2,.95c.8.3,1.73.59,2.68,1a6.08,6.08,0,0,1,2.56,2.15,5.84,5.84,0,0,1,1,3.65c-.06,1.36-.56,2.82-.33,4.43a3.76,3.76,0,0,0,1.06,2.22,4.18,4.18,0,0,0,2.35.94,8.94,8.94,0,0,1,6.93,5.05,8.16,8.16,0,0,1,0,7,9.42,9.42,0,0,1-3.15,3.78C368,234.45,367.37,234.67,367.39,234.72Z"
       style="fill:#263238"
       id="path120" />
    <path
       d="M322.88,247.06s-.62-.35-1.7-1a9.52,9.52,0,0,1-3.7-3.7,5.42,5.42,0,0,1-.45-3.48,3.74,3.74,0,0,1,.87-1.73,9,9,0,0,1,1.7-1.32,4.77,4.77,0,0,0,2.24-4.18c-.06-1.79-1.29-3.19-1.81-4.75a6.62,6.62,0,0,1,.42-4.74,12,12,0,0,1,2.7-3.72c2.15-2.07,4.43-3.63,6-5.37a10.4,10.4,0,0,0,2.6-4.73,6.25,6.25,0,0,0,.13-1.47,1.77,1.77,0,0,0-.06-.51,12.48,12.48,0,0,1-.27,1.94,10.7,10.7,0,0,1-2.68,4.52c-1.52,1.68-3.8,3.19-6,5.28A12.29,12.29,0,0,0,320,222a7,7,0,0,0-.44,5.1c.58,1.7,1.75,3,1.79,4.61a4.32,4.32,0,0,1-2,3.78,8.4,8.4,0,0,0-1.76,1.4,4.07,4.07,0,0,0-.95,1.94,5.79,5.79,0,0,0,.54,3.73,7.55,7.55,0,0,0,2,2.4,12.26,12.26,0,0,0,1.94,1.31c.57.31,1,.52,1.33.66A2.62,2.62,0,0,0,322.88,247.06Z"
       style="fill:#263238"
       id="path121" />
    <path
       d="M356.63,212.6a5.62,5.62,0,0,1-2.16-2.94,16.45,16.45,0,0,1-.72-3.63c-.05-.36,0-.82.31-.94s.64.21.83.5a11.82,11.82,0,0,1,1.77,7.37l-.24-.19"
       style="fill:#263238"
       id="path122" />
    <path
       d="M332.71,203.85a5.33,5.33,0,0,0,.3-7.28,6,6,0,0,0-7.4-.9,5.14,5.14,0,0,0-2.28,3,5.2,5.2,0,0,0,.77,3.94,8.58,8.58,0,0,0,3,2.75,7.71,7.71,0,0,0,5.2,1.17,4.42,4.42,0,0,0,3.68-3.51"
       style="fill:#263238"
       id="path123" />
    <path
       d="M308.5,280.67l2.25-18c1.55-14.72,22-17.24,22-17.24L348.89,244s12.07-2.71,19.83,5.22c1.36,1.39,14.63,22.48,14.63,22.48L371.13,287l-7.85-14.66a17.09,17.09,0,0,1,2.87,7.9c.36,4.73-4.47,7.28-4.47,7.28L361.23,302,368,324.85l-52.82,1.82a51.63,51.63,0,0,1,6.14-22.5l-2.78-24.25Z"
       style="fill:#C53AAE"
       id="path124" />
    <path
       d="M374.71,260.09a2.89,2.89,0,0,1-.3.64,6.05,6.05,0,0,1-1.35,1.52,9.74,9.74,0,0,1-7.13,1.81,21.3,21.3,0,0,1-5-1.3c-1.74-.64-3.54-1.44-5.5-2.06a25.18,25.18,0,0,0-13.19-.49c-4.64,1.05-8.49,3.66-12.44,5a16.39,16.39,0,0,1-5.84,1.06,13.43,13.43,0,0,1-5.05-1.14,13.81,13.81,0,0,1-5.76-4.66,9.53,9.53,0,0,1-1.29-2.41c.06,0,.41.89,1.45,2.29a14,14,0,0,0,5.75,4.44,13.21,13.21,0,0,0,4.91,1.05,16,16,0,0,0,5.66-1.08c3.87-1.37,7.73-4,12.5-5.1a25.37,25.37,0,0,1,13.44.54c2,.65,3.79,1.46,5.51,2.11a21.08,21.08,0,0,0,4.88,1.34,9.72,9.72,0,0,0,7-1.6A7.74,7.74,0,0,0,374.71,260.09Z"
       style="fill:#fafafa"
       id="path125" />
    <path
       d="M365.44,281.82s-.1.1-.32.26-.54.39-1,.64a20.78,20.78,0,0,1-3.94,1.82,23.21,23.21,0,0,1-14.16.29c-2.69-.83-5.07-2-7.31-2.86a17.76,17.76,0,0,0-6.15-1.36,9.93,9.93,0,0,0-4.16.72c-.93.39-1.38.74-1.41.69s.09-.1.31-.27a6.54,6.54,0,0,1,1-.61,9.72,9.72,0,0,1,4.25-.9,17.64,17.64,0,0,1,6.32,1.28c2.28.82,4.66,2,7.29,2.81a23.6,23.6,0,0,0,13.89-.14A35.33,35.33,0,0,0,365.44,281.82Z"
       style="fill:#fafafa"
       id="path126" />
    <path
       d="M329.63,259.11a4.35,4.35,0,0,0-.19,1.15c-.11.86-.24,1.91-.39,3.16-.33,2.78-.76,6.41-1.24,10.42s-.87,7.77-1.1,10.45c-.11,1.34-.18,2.42-.22,3.18a5.31,5.31,0,0,0,0,1.17,5,5,0,0,0,.19-1.16c.11-.85.24-1.91.39-3.15.33-2.79.76-6.42,1.24-10.43s.87-7.76,1.1-10.44c.11-1.34.18-2.43.22-3.18A5.31,5.31,0,0,0,329.63,259.11Z"
       style="fill:#263238"
       id="path127" />
    <path
       d="M308.16,279.76a93,93,0,0,0,9.75-.43,89.29,89.29,0,0,0,9.72-.95,96.39,96.39,0,0,0-9.75.43A92.39,92.39,0,0,0,308.16,279.76Z"
       style="fill:#263238"
       id="path128" />
    <path
       d="M365.52,277a14.68,14.68,0,0,0-.81-2.35c-.28-.72-.62-1.57-1-2.5-.21-.47-.43-1-.69-1.45-.13-.27-.3-.5-.39-.72a2.33,2.33,0,0,1-.15-.76,10.41,10.41,0,0,1,.13-1.66c.06-.54.12-1.07.17-1.58.1-1,.19-1.85.27-2.68a11.9,11.9,0,0,0,.12-2.48,11.76,11.76,0,0,0-.48,2.44c-.12.82-.25,1.71-.38,2.67-.07.5-.14,1-.21,1.57a10.57,10.57,0,0,0-.14,1.74,2.71,2.71,0,0,0,.19.93c.13.31.31.53.42.76.25.48.48,1,.7,1.41.4.88.77,1.7,1.12,2.45A10.36,10.36,0,0,0,365.52,277Z"
       style="fill:#263238"
       id="path129" />
    <path
       d="M307.33,295.93c.42-8.6,1.28-16,1.28-16l18.65-1.35s-1.53,11-.83,13.45c.61,2.15,36.85,1,46.28.43.53-.46,1.4.18,2.07-.5a7.13,7.13,0,0,0,1.46-2.07,11.23,11.23,0,0,0,1.08-3,1,1,0,0,1,1.76-.53c.44.77.2,3.46-1.4,6.16s3,1,4.68.44,7-2.12,7.57-1.74c.85.57.42,1.61-1.28,2.15s-6.67,2.52-6.32,3.41,8.87-2.2,8.87-2.2,1.72-1,2.16.06c.78,1.83-8.54,4.42-9.43,4.64-.62.16-.28,1.14.38.93s8.44-3.26,9.25-1.41c.63,1.43-7.64,2.2-8.9,3.75s6.21-1.24,6.75.15c.2.51-3,1-7.48,2a120.37,120.37,0,0,1-14.07,1.52c-10.55,1.34-47.91,4.83-55.94,4.85C304.56,311.1,307.18,298.88,307.33,295.93Z"
       style="fill:#ffbe9d"
       id="path131" />
    <path
       d="M338.89,211.18c-1.31,1.94-2.68,4.15-2.23,6.44.4,2,2.15,3.67,2,5.71-.15,2.34-2.76,4.06-2.72,6.4,0,2,1.82,3.33,3.13,4.79a10.63,10.63,0,0,1,2.74,7.72,9.23,9.23,0,0,1-4.07,7,8.27,8.27,0,0,1-8.08.51,11.44,11.44,0,0,1-4.92-5.87c-1.34-3.1-1.92-6.83-.21-9.75.69-1.19,1.75-2.24,1.9-3.6.2-1.72-1.14-3.24-1.46-4.94-.42-2.29,1-4.51,2.7-6.14s3.67-3,4.86-5"
       style="fill:#263238"
       id="path132" />
    <path
       d="M314.8,324.31s67.84-19.31,74.74-16.66,43.12,75.69,43.12,75.69l-24,12.35-31.3-62s-46.95,20.95-55.5,19.83S314.8,324.31,314.8,324.31Z"
       style="fill:#263238"
       id="path133" />
    <path
       d="M345.88,326.08c1.08.27,42.1,13.59,45.29,18.6s2.59,92.1,2.59,92.1l-22.66,1.65-4.2-77.06-45-7.88Z"
       style="fill:#263238"
       id="path134" />
    <path
       d="M321.65,353.69a4.37,4.37,0,0,0,.65-.13l1.83-.46c1.58-.41,3.87-1,6.69-1.84,5.63-1.62,13.37-4,21.77-7.06,4.2-1.54,8.16-3.12,11.73-4.63s6.73-3,9.34-4.32c1.31-.64,2.48-1.27,3.5-1.82s1.91-1,2.61-1.45l1.62-1a4.1,4.1,0,0,0,.55-.36,2.8,2.8,0,0,0-.6.27l-1.67.88c-.72.39-1.6.85-2.64,1.37s-2.21,1.13-3.54,1.75c-2.62,1.29-5.81,2.69-9.36,4.22s-7.53,3-11.72,4.58c-8.38,3-16.1,5.49-21.7,7.19l-6.64,2-1.8.55A2.86,2.86,0,0,0,321.65,353.69Z"
       style="fill:#455a64"
       id="path135" />
    <path
       d="M392.49,364.58a5.89,5.89,0,0,0,.12-1.32c0-.94.07-2.14.12-3.57s.07-3.34.11-5.31a23.62,23.62,0,0,0-.47-6.53,10.17,10.17,0,0,0-3.71-5.4,17.58,17.58,0,0,0-4.75-2.56,36.1,36.1,0,0,0-3.46-1.07,5.7,5.7,0,0,0-1.3-.27c0,.09,1.81.58,4.63,1.68a18.14,18.14,0,0,1,4.58,2.59,9.88,9.88,0,0,1,3.51,5.16,24.84,24.84,0,0,1,.49,6.39v5.31c0,1.43,0,2.63.05,3.58A7.44,7.44,0,0,0,392.49,364.58Z"
       style="fill:#455a64"
       id="path136" />
    <path
       d="M372.19,358.58a8.84,8.84,0,0,0-2.72,1.14,8.71,8.71,0,0,0-2.48,1.59,8.38,8.38,0,0,0,2.72-1.13A8.61,8.61,0,0,0,372.19,358.58Z"
       style="fill:#455a64"
       id="path137" />
    <path
       d="M370,356.36A29.54,29.54,0,0,0,368.4,359c-.93,1.43-1.9,2.44-1.8,2.55a8.15,8.15,0,0,0,3.42-5.22Z"
       style="fill:#455a64"
       id="path138" />
    <path
       d="M361.58,360.55s.08.18.37.32a2.64,2.64,0,0,0,1.34.22,13.94,13.94,0,0,1,1.88-.09,1.3,1.3,0,0,1,1.23,1.34,36.19,36.19,0,0,0,.72,6,33.61,33.61,0,0,0-.2-6,2.08,2.08,0,0,0-.52-1.25,1.84,1.84,0,0,0-1.18-.51,12.12,12.12,0,0,0-2,.2A3.26,3.26,0,0,1,361.58,360.55Z"
       style="fill:#263238"
       id="path139" />
    <polygon
       points="429.19 266.17 413.81 311.13 344.13 311.13 344.64 308.82 372.82 307.95 385.8 266.14 429.19 266.17"
       style="fill:#263238"
       id="polygon139" />
    <path
       d="M292.38,282.78c11.32.82,21.22,8.89,26.68,18.84s7.08,21.57,7.4,32.92a35,35,0,0,1,37.51,43L274.6,364.62Z"
       style="fill:#455a64"
       id="path140" />
    <path
       d="M401.53,374.51s0,.21-.16.62a17,17,0,0,1-.63,1.75,18.71,18.71,0,0,1-4.11,5.84,25.71,25.71,0,0,1-9.65,5.86,48.5,48.5,0,0,1-14.82,2.25c-5.57.09-11.65-.06-18.19-.09l-20.86-.2c-7.34-.11-15.07,0-23.06-.58s-16.29-1.83-24.23-5-15-8.05-19.76-14.6a43.39,43.39,0,0,1-7.77-21.55,57,57,0,0,1,2.14-20.72c.24-.79.48-1.56.72-2.33s.55-1.51.83-2.25c.54-1.49,1.16-2.9,1.71-4.32,1.14-2.81,2.23-5.51,3.31-8.07a117.26,117.26,0,0,1,6.6-13.48,66.11,66.11,0,0,1,6.56-9.24,63,63,0,0,1,5-5.15l1.39-1.24.49-.41-.45.45-1.36,1.28a67.76,67.76,0,0,0-4.89,5.2,65.66,65.66,0,0,0-6.46,9.26,117.52,117.52,0,0,0-6.52,13.47c-1.07,2.57-2.15,5.27-3.27,8.08-.55,1.41-1.17,2.84-1.7,4.32-.27.74-.54,1.48-.82,2.23s-.47,1.54-.71,2.32a56.79,56.79,0,0,0-2.07,20.55,42.87,42.87,0,0,0,7.7,21.3c4.69,6.45,11.71,11.32,19.55,14.42s16.12,4.38,24.07,5,15.68.49,23,.61l20.87.25c6.53.05,12.62.22,18.17.15a48.53,48.53,0,0,0,14.73-2.16,25.77,25.77,0,0,0,9.61-5.72,18.9,18.9,0,0,0,4.15-5.74,16.65,16.65,0,0,0,.68-1.73C401.45,374.71,401.53,374.51,401.53,374.51Z"
       style="fill:#263238"
       id="path141" />
    <path
       d="M329.34,399.56c-.15,0-.09-2.08-.38-4.61s-.8-4.53-.65-4.57a12.21,12.21,0,0,1,1.17,4.52A11.71,11.71,0,0,1,329.34,399.56Z"
       style="fill:#263238"
       id="path142" />
    <path
       d="M332.94,398c-.15,0,.23-1.78.28-4s-.22-3.93-.07-4a8.53,8.53,0,0,1,.59,4A8.64,8.64,0,0,1,332.94,398Z"
       style="fill:#263238"
       id="path143" />
    <path
       d="M292.58,377.36a19.59,19.59,0,0,0-2.72,3.86,19,19,0,0,0-1.21,4.56,8.66,8.66,0,0,1,3.93-8.42Z"
       style="fill:#263238"
       id="path144" />
    <path
       d="M288.24,376.59a9,9,0,0,0-4.63,6.89,2.32,2.32,0,0,1-.08-1.31A6.89,6.89,0,0,1,287,377,2.53,2.53,0,0,1,288.24,376.59Z"
       style="fill:#263238"
       id="path145" />
    <path
       d="M332.46,334.92c0,.1-1.54-.18-4-.24a31.3,31.3,0,0,0-4.33.23,34.32,34.32,0,0,0-5.2,1.09,34.67,34.67,0,0,0-4.93,2,31.41,31.41,0,0,0-3.73,2.22c-2,1.41-3.14,2.49-3.21,2.42s.23-.31.73-.8a20.61,20.61,0,0,1,2.26-1.92,28.29,28.29,0,0,1,3.73-2.35,32.54,32.54,0,0,1,5-2,31.81,31.81,0,0,1,5.29-1.07,26.93,26.93,0,0,1,4.41-.11,19.77,19.77,0,0,1,2.94.34A4,4,0,0,1,332.46,334.92Z"
       style="fill:#263238"
       id="path146" />
  </g>
</svg>
