<?xml version="1.0" encoding="UTF-8" standalone="no"?>
<svg
   viewBox="0 0 500 500"
   version="1.1"
   id="svg142"
   sodipodi:docname="it's time.svg"
   inkscape:version="1.4 (86a8ad7, 2024-10-11)"
   xmlns:inkscape="http://www.inkscape.org/namespaces/inkscape"
   xmlns:sodipodi="http://sodipodi.sourceforge.net/DTD/sodipodi-0.dtd"
   xmlns="http://www.w3.org/2000/svg"
   xmlns:svg="http://www.w3.org/2000/svg">
  <defs
     id="defs142" />
  <sodipodi:namedview
     id="namedview142"
     pagecolor="#505050"
     bordercolor="#ffffff"
     borderopacity="1"
     inkscape:showpageshadow="0"
     inkscape:pageopacity="0"
     inkscape:pagecheckerboard="1"
     inkscape:deskcolor="#505050"
     inkscape:zoom="2.162"
     inkscape:cx="249.76873"
     inkscape:cy="250"
     inkscape:window-width="2400"
     inkscape:window-height="1321"
     inkscape:window-x="6391"
     inkscape:window-y="642"
     inkscape:window-maximized="1"
     inkscape:current-layer="svg142" />
  <g
     id="freepik--Character--inject-468">
    <g
       id="freepik--character--inject-468">
      <g
         id="freepik--Bottom--inject-468">
        <path
           d="M110.84,378.09c-.15-5.07.73-46.23.73-46.23l-20.09,12.5c3.2,22.58,5.81,33.22,6.15,37.13h0a4.3,4.3,0,0,1,.14.8c.07,4.47,5.44,6.83,9.64,9.77a77.49,77.49,0,0,0,11.35,6.83c3,1.41,9.19,1.48,9.93-.37-5.11-3.61-11-7.54-15.11-11.68C111.63,384.86,111,382.8,110.84,378.09Z"
           style="fill:#ffbda7"
           id="path96" />
        <path
           d="M137.39,403.24c.26,0,.68,2.7-.72,3.87-1.61,1.34-6.37,3.57-12.7,2.87s-9.78-2.53-12.33-4.5-6.13-4.76-9-5.33c-2.66-.53-5.56-1.63-6.42-2.4s-.78-4.22-.78-4.22Z"
           style="fill:#263238"
           id="path97" />
        <path
           d="M97.46,380.29s-.44,0-.59.76-.37,3.72-.77,5.28a26.5,26.5,0,0,0-.52,8.39c.36,1.76,4.71,2.95,7.49,3.91a36,36,0,0,1,9,5.26,26.9,26.9,0,0,0,13.39,4.56c6.29,0,10.35-1.63,11.58-3.78,1.53-2.66.29-4.18-7-7.27-1.37-.58-6.21-3.22-7.86-4.18A23.92,23.92,0,0,1,112,382.48a2.61,2.61,0,0,0-1.06-1.41,2.46,2.46,0,0,0-1.4-.11,17.59,17.59,0,0,0-4.24.91c-1,.44-2.34,1-2.31,2.14a4.14,4.14,0,0,0,.29,1.19c.09.24.16.56-.06.7s-.49,0-.68-.17a17.8,17.8,0,0,1-2-2.19,6.66,6.66,0,0,0-1.16-1.09,14.25,14.25,0,0,1-1.25-.75A2.34,2.34,0,0,1,97.46,380.29Z"
           style="fill:#37474f"
           id="path98" />
        <path
           d="M131.27,397.91c-9.11.69-11.91,6-12.26,9.32a22.44,22.44,0,0,0,6.48,1.22c6.29,0,10.6-1.63,11.84-3.78C138.77,402.16,137.75,400.16,131.27,397.91Z"
           style="fill:#fafafa"
           id="path99" />
        <path
           d="M117.61,398.14a.51.51,0,0,1-.28-.09.41.41,0,0,1-.07-.59,11.05,11.05,0,0,1,8.2-3.16.43.43,0,0,1,.4.46.43.43,0,0,1-.48.38A10.2,10.2,0,0,0,118,398,.48.48,0,0,1,117.61,398.14Z"
           style="fill:#f0f0f0"
           id="path100" />
        <path
           d="M113.67,396a.52.52,0,0,1-.29-.09.4.4,0,0,1-.06-.59,11,11,0,0,1,8.19-3.16.43.43,0,0,1,.4.46.43.43,0,0,1-.48.38,10.22,10.22,0,0,0-7.42,2.84A.46.46,0,0,1,113.67,396Z"
           style="fill:#f0f0f0"
           id="path101" />
        <path
           d="M110,393.59a.52.52,0,0,1-.29-.09.41.41,0,0,1-.07-.59,11,11,0,0,1,8.2-3.15.41.41,0,0,1,.4.45.43.43,0,0,1-.48.38,10.22,10.22,0,0,0-7.42,2.84A.46.46,0,0,1,110,393.59Z"
           style="fill:#f0f0f0"
           id="path102" />
        <path
           d="M106.42,391.16a.47.47,0,0,1-.28-.09.41.41,0,0,1-.08-.59c1.72-2.1,5.65-3.51,9-3.2a.43.43,0,0,1,.4.46.46.46,0,0,1-.49.38c-3-.28-6.64,1-8.17,2.88A.44.44,0,0,1,106.42,391.16Z"
           style="fill:#f0f0f0"
           id="path103" />
        <path
           d="M68.12,356.21,48.89,354c-1,12.19-.4,25.87-1.28,37.31-.16,2.15-1.83,16.67-1.44,21.17.58,6.76,9,6.65,9.87,2.72s3-21.08,3.18-22.83c.7-7.32,4.37-19.22,7.67-32.17C67.06,359.6,68,356.83,68.12,356.21Z"
           style="fill:#ffbda7"
           id="path104" />
        <path
           d="M58.89,418.31c-.24,3.91-.88,6.51-2.36,8.81s-4.24,3-7.05,2.34-6.41-2.47-7.21-5.85a20.23,20.23,0,0,1,0-9.32Z"
           style="fill:#263238"
           id="path105" />
        <path
           d="M47.71,390c-1.16.08-1.5,5.34-2.17,10.61-.71,5.64-2.49,8-3.13,12.6-.73,5.29-.44,7.65,1.52,10.85s8.9,6.33,12.32,1.75c2.79-3.73,2.9-7.87,2.65-13.15a113,113,0,0,1,.37-13.38c.23-4,1.15-8,.15-8.39-.08.59-.15,1.32-.24,1.89s-.17,2.59-.82,2.61a8.34,8.34,0,0,1,0-1.5,1.63,1.63,0,0,0-.31-1.27,2.15,2.15,0,0,0-1.29-.54c-1.14-.22-3.55-.31-4.71-.41a16.68,16.68,0,0,0-1.73-.07,4.54,4.54,0,0,0-1.47.2,1,1,0,0,0-.63.53,1.76,1.76,0,0,0-.06.61A4.38,4.38,0,0,1,48,394c0,.16-.16.35-.32.31s-.19-.19-.19-.32c0-.64.08-1.1.11-1.84,0-.34.07-.81.08-1.16S47.69,390.29,47.71,390Z"
           style="fill:#37474f"
           id="path106" />
        <path
           d="M42.09,416.23c-.2,3.28,0,5.53,1.53,8,2,3.19,9.46,6.34,12.88,1.76,1.7-2.28,2.15-5,2.39-7.72C56.84,414.78,45.32,413.22,42.09,416.23Z"
           style="fill:#fafafa"
           id="path107" />
        <path
           d="M55.92,412.56l-.14,0a17.84,17.84,0,0,0-10-1,.44.44,0,0,1-.51-.31.4.4,0,0,1,.32-.49,18.45,18.45,0,0,1,10.55,1,.4.4,0,0,1,.2.54A.45.45,0,0,1,55.92,412.56Z"
           style="fill:#f0f0f0"
           id="path108" />
        <path
           d="M46.07,407.61a.42.42,0,0,1-.36-.28.39.39,0,0,1,.27-.51c5.19-1.66,10.31.83,10.53.94a.39.39,0,0,1,.18.54.44.44,0,0,1-.58.17s-5-2.44-9.86-.88A.55.55,0,0,1,46.07,407.61Z"
           style="fill:#f0f0f0"
           id="path109" />
        <path
           d="M46.37,403.89a.42.42,0,0,1-.36-.27.4.4,0,0,1,.26-.52A14,14,0,0,1,57,404a.4.4,0,0,1,.15.56.46.46,0,0,1-.59.14,13.28,13.28,0,0,0-10-.84A.43.43,0,0,1,46.37,403.89Z"
           style="fill:#f0f0f0"
           id="path110" />
        <path
           d="M46.72,399.72a.45.45,0,0,1-.36-.26.41.41,0,0,1,.25-.53c5.35-1.89,10.61.9,10.83,1a.39.39,0,0,1,.15.55.44.44,0,0,1-.58.15s-5.13-2.73-10.09-1A.69.69,0,0,1,46.72,399.72Z"
           style="fill:#ebebeb"
           id="path111" />
        <path
           d="M63.37,220.25a9.22,9.22,0,0,1-1.86,4.44c-5.09,7.15-9.07,14-9.48,27C51,283.74,51.8,317,51.8,317c-.22,2.83-2.61,7.84-3.7,22.49-1,12.83-.62,30.4-.62,30.4s9.31,4.37,17.32,1.29c3.18-10.42,9.81-37.47,13.28-51.43,3.16-12.67,5.26-31.32,5.26-31.32l5.54,25.84a75.37,75.37,0,0,0,.21,16.7c1,8.58,5,33.18,5,33.18s10.25,3,17.13-1.81c0,0,1.72-42.85,1.79-53.24.14-19.31,0-58.86-5.93-83.53a53,53,0,0,1-.38-5.74C99.92,225.41,72.41,226.27,63.37,220.25Z"
           style="fill:#37474f"
           id="path112" />
        <path
           d="M74.09,229.32a.39.39,0,0,0-.45.27c-.37,1.49-.66,2.83-.93,4.13-1,4.69-1.72,8.07-5.26,11.71A12.39,12.39,0,0,1,58.52,249c1.53-9.59,4.78-17.25,9.94-23.58a.34.34,0,0,0-.07-.5.38.38,0,0,0-.52.07c-5.31,6.5-8.62,14.38-10.15,24.26,0,0,0,0,0,.05s0,0,0,0a88.75,88.75,0,0,0-1,11.91c-.33,18-.83,45.3-1.11,52.45A51.46,51.46,0,0,1,53.54,325c-.94,3.63-2,7.75-2.95,13.38-2.05,12.19-1,32.2-1,32.4a.37.37,0,0,0,.38.34h0a.37.37,0,0,0,.36-.37c0-.2-1.05-20.15,1-32.26.94-5.6,2-9.7,2.94-13.32a52.53,52.53,0,0,0,2.12-11.51c.27-7.17.77-34.43,1.1-52.46a90.75,90.75,0,0,1,.92-11.55h.39a13,13,0,0,0,9.2-3.78c3.69-3.78,4.43-7.25,5.45-12,.27-1.29.56-2.63.92-4.11A.35.35,0,0,0,74.09,229.32Z"
           style="fill:#455a64"
           id="path113" />
        <path
           d="M47.42,365.89c2.74,2.58,14.22,3.95,18.42,1.69l-1.76,6.87s-2.73,1.69-8.83,1.14c-7.07-.64-7.83-2.9-7.83-2.9Z"
           style="fill:#455a64"
           id="path114" />
        <path
           d="M93.46,360.38c3.64,1.2,13.91.45,17.87-2l-.16,5.74s-2.23,2.15-8.32,2.79-8.57-1-8.57-1Z"
           style="fill:#455a64"
           id="path115" />
        <path
           d="M83.34,288.39l4-31.66a20,20,0,0,0,16-7.71s.26,7.91-12.75,11.55L85.8,289.76l3.08,24.47Z"
           style="fill:#263238"
           id="path116" />
      </g>
      <g
         id="freepik--Top--inject-468">
        <path
           d="M52.61,195.22c-2.21-1.15-3.72-2.13-5-4.46-1.52-2.75-2.14-5.69-.81-8.82a9.35,9.35,0,0,1,4-4.59,5.1,5.1,0,0,1-1.43-1.25,4.62,4.62,0,0,1-1-3,6.56,6.56,0,0,1,4.06-6.38c2.08-.88,4.15-1.37,5.64-3.24,1.26-1.59,1.07-4,.94-5.88-.18-2.46-.4-4.92-.53-7.38-.28-5.2-.79-12.41,4.94-18.59a9.49,9.49,0,0,1,5.34-2.89c2.15-4.93,7.13-7.45,11.38-8.55A33.27,33.27,0,0,1,91,119.47a18.53,18.53,0,0,1,10.11,3.81,13.7,13.7,0,0,1,4.94,8.85,11.24,11.24,0,0,1-2,7.93,6.32,6.32,0,0,1,2.11,2.94c.54,2.55.14,5.65-4.07,7.69l-5.82,6.42a64,64,0,0,1,3.09,12.49,80.93,80.93,0,0,1,.45,8.24c0,8.21-1.27,18-8.24,23.69-2,1.62-6.64,3-18.83.65S53.47,195.67,52.61,195.22Z"
           style="fill:#37474f"
           id="path117" />
        <path
           d="M131.65,203.55c7.77-5.19,10-6.62,10.94-8.61s.74-4,1.48-7.28a22.29,22.29,0,0,0,.32-8.5c-.39-1.7,1.65-1.44,3.22.69s.93,3.3,1.27,5.32,1.26,1.82,2.53.63,7.31-7.21,9.43-8.91,3.53-1.23,4-.29c.29.54-.82,1.59-3.48,4.34s-5.43,5-5.24,5.21,2.9-2.32,6-4.74c2.81-2.22,4.43-3.3,6-3.1,1.73.23,1.78,1.55,1.28,1.92a76.11,76.11,0,0,0-6.62,5.22,32.64,32.64,0,0,0-3.49,3.3c.12.33,2.38-1.39,5.48-3.05,2.83-1.51,4.45-2.14,6-1.24.32.18.75.69.63,1-.29.67-2.6,1.71-4,2.54-2,1.21-2.22,1.24-3.69,2.23-1,.68-2.32,1.58-2.24,1.78s5.1-2,6.83-1.93c1.49.07,2.52.94,1.19,1.82s-8.62,5-11.38,6.75-5.79,4.18-8.39,6.14-14,9.8-14,9.8Z"
           style="fill:#ffbda7"
           id="path118" />
        <path
           d="M94.46,171.06c5,.45,9.12,2,13.22,7.28,3.55,4.58,16.68,26.64,16.68,26.64s8.5-3.66,11.67-5.36,6.68-3.52,7.36-7.72c0,0,9.31,10.4,7.38,12S136,217.06,131.13,220.5c-6.37,4.48-8.48,5.79-12.93,2.48s-17.11-21.36-17.11-21.36Z"
           style="fill:#ffbda7"
           id="path119" />
        <path
           d="M94.28,171c5.7.29,8.94,1.57,12.77,5.93s17.43,27.81,17.43,27.81l5.41-2.6a13.3,13.3,0,0,0,1.28,7.8c2,3.82,6.52,5.46,6.52,5.46s-5.94,5.68-10.83,8.44-7.36,1.41-10.4-1.77S93.88,192.8,93.88,192.8Z"
           style="fill:#C53AAE"
           id="path120" />
        <path
           d="M94.28,171c5.7.29,8.94,1.57,12.77,5.93s17.43,27.81,17.43,27.81l5.41-2.6a13.3,13.3,0,0,0,1.28,7.8c2,3.82,6.52,5.46,6.52,5.46s-5.94,5.68-10.83,8.44-7.36,1.41-10.4-1.77S93.88,192.8,93.88,192.8Z"
           style="opacity:0.2"
           id="path121" />
        <path
           d="M150.14,188.82c1.34,2.47-.39,6.23-2.29,8.3C150.77,195.22,152.56,192.23,150.14,188.82Z"
           style="fill:#f0997a"
           id="path122" />
        <path
           d="M124.48,204.7a12,12,0,0,0-5.79,10.58c-.67-3.66-1.11-8.55,4.81-12.36Z"
           style="opacity:0.2"
           id="path123" />
        <path
           d="M107.44,205.81c.27,4.72-.1,17.47-.1,17.47,1.61,11.81,2.67,19,2.67,19-20.91,11.16-52.56,3-56.53-1.57,2-10.35,8.37-19.69,7.21-25.23l-5-21.06s9.93-6.87,9.11-22.09a135.05,135.05,0,0,1,13.58-1.64,100.83,100.83,0,0,1,15.94.26c3.36,1.84,10.37,8,14.36,14.42S113.75,199.21,107.44,205.81Z"
           style="fill:#C53AAE"
           id="path124" />
        <path
           d="M91.38,205.27s-5.45,4.82-12.16,2.92a11.24,11.24,0,0,1-8-7.57s-.22,7.53,8.21,9.56A10.86,10.86,0,0,0,91.38,205.27Z"
           style="opacity:0.1"
           id="path125" />
        <path
           d="M95.05,130.4c2.64,1.19,6.21,4.52,7.22,19.68.72,10.78-2.13,12.81-3.73,14-2.58,1.9-5.33,1.91-8.8,1.68l-.19,6.41s7.24,9.85,4,14.47a29.06,29.06,0,0,1-14.43-6.94,24.39,24.39,0,0,1-5.86-7l.24-13.85s-1.83,2.06-5.52-.49c-3-2.1-4.36-6-2.37-8.34a5,5,0,0,1,7.94.77s3.85-.1,4-7.3c0,0,5.69-.91,8.74-2.74C93.21,136.55,94.35,132.24,95.05,130.4Z"
           style="fill:#ffbda7"
           id="path126" />
        <path
           d="M89.74,165.74c-5.44-.37-11.48-2.56-12.9-5.26a6,6,0,0,0,3.56,4.71c2.61,1.21,9.28,2.63,9.28,2.63Z"
           style="fill:#f0997a"
           id="path127" />
        <path
           d="M87.69,145.92a1.6,1.6,0,0,1-1.32,1.8,1.52,1.52,0,0,1-1.83-1.2,1.6,1.6,0,0,1,1.32-1.8A1.53,1.53,0,0,1,87.69,145.92Z"
           id="path128" />
        <path
           d="M87.4,155.56,93,156.91a2.84,2.84,0,0,1-3.44,2.1A2.88,2.88,0,0,1,87.4,155.56Z"
           style="fill:#b16668"
           id="path129" />
        <path
           d="M87.87,156.69a3.89,3.89,0,0,0-.49,0A2.91,2.91,0,0,0,89.55,159a2.84,2.84,0,0,0,1.76-.14A3.8,3.8,0,0,0,87.87,156.69Z"
           style="fill:#f28f8f"
           id="path130" />
        <path
           d="M99.54,140.61,96,140.39a1.78,1.78,0,0,1,3.56.22Z"
           id="path131" />
        <path
           d="M86,141.34l-3.16,1.71a1.79,1.79,0,0,1,.73-2.45A1.7,1.7,0,0,1,86,141.34Z"
           id="path132" />
        <path
           d="M99.33,144.39a1.59,1.59,0,0,1-1.31,1.8,1.54,1.54,0,0,1-1.83-1.2,1.6,1.6,0,0,1,1.32-1.8A1.52,1.52,0,0,1,99.33,144.39Z"
           id="path133" />
        <polygon
           points="91.38 143.82 93.63 154.02 98.68 150.74 91.38 143.82"
           style="fill:#f0997a"
           id="polygon133" />
        <g
           id="freepik--Arm--inject-468">
          <path
             d="M100.9,205c3.35-1.84,5-2.5,6.48-2.7s6.74-1.56,8.71-1.76c1.25-.13,1.47,1.86-.26,3-1.33.85-4.6,1.75-6.06,2.3s-4.56,3.39-4.56,3.39Z"
             style="fill:#f0997a"
             id="path134" />
          <path
             d="M51.52,183.5c1.74-6.15,4.45-9,13.33-10.94,7.43,7.2,2.05,24.93,2.05,24.93L63.74,216s21.4-.88,23.64-1.9S96,208,98.08,206.45c2.86-2,4.06-1.55,5.31-1.18,4.1,1.22,5,1.71,5.77,2.39a1.93,1.93,0,0,1,.59,1.75c1.09.3,2.76.5,2.71,2.36a5.27,5.27,0,0,1-.14,1.47,1.24,1.24,0,0,1,.67.52c.77,1.2-1.34,4.69-2.48,5.45a3.68,3.68,0,0,1-3.12.1c-1.1-.31-.42-1.38-.42-1.38l-1.59-.13c-3.75,1.93-4.6,6.7-9.25,7.12a30.56,30.56,0,0,0-5.65.29c-10.16,1.88-27.46,9.49-36.2,9-8.54-.47-7.57-4.9-7.87-10.11C46.05,217.93,49.58,190.37,51.52,183.5Z"
             style="fill:#ffbda7"
             id="path135" />
          <path
             d="M64.76,172.34C59.1,173.42,54.5,175,52,180.71s-4.36,21.72-5,27.85-1.56,17.83-.61,21.4,4.39,4.7,8.3,4.69,12.42-2.34,15.77-3.63c0,0-2.44-1.81-2.77-7.27-.29-4.85,1.56-7.56,3.17-8.1l-6.91.24s3.17-16.48,4.32-22.21S70.34,175.37,64.76,172.34Z"
             style="fill:#C53AAE"
             id="path136" />
          <path
             d="M64.76,172.34C59.1,173.42,54.5,175,52,180.71s-4.36,21.72-5,27.85-1.56,17.83-.61,21.4,4.39,4.7,8.3,4.69,12.42-2.34,15.77-3.63c0,0-2.44-1.81-2.77-7.27-.29-4.85,1.56-7.56,3.17-8.1l-6.91.24s3.17-16.48,4.32-22.21S70.34,175.37,64.76,172.34Z"
             style="opacity:0.2"
             id="path137" />
          <path
             d="M64.3,214.13,64,215.89c-5.53.14-9.92,1.47-12.45,4.69C53.27,216,57.29,214.58,64.3,214.13Z"
             style="opacity:0.2"
             id="path138" />
          <path
             d="M109.75,209.41l-4.83-1.71,4.82,1A2.06,2.06,0,0,1,109.75,209.41Z"
             style="fill:#f0997a"
             id="path139" />
          <path
             d="M112.32,213.24l-5.62-1.56,5.72.9A2.64,2.64,0,0,1,112.32,213.24Z"
             style="fill:#f0997a"
             id="path140" />
          <path
             d="M111.21,215.65a1.8,1.8,0,0,1-.87.56,3.55,3.55,0,0,1-1,.2l.08,0c-.19.27-.4.54-.61.81l-.09-.17a1.19,1.19,0,0,1,.88.36,1.5,1.5,0,0,1,.39.81,1.77,1.77,0,0,0-.49-.7,1.14,1.14,0,0,0-.76-.25h-.23l.13-.18c.2-.28.4-.56.61-.82l0-.05h0a5.48,5.48,0,0,0,1-.13A2.09,2.09,0,0,0,111.21,215.65Z"
             style="fill:#f0997a"
             id="path141" />
          <path
             d="M109.58,216.18a19.63,19.63,0,0,1-2.09-.15s-.1.4-.87,1a11.89,11.89,0,0,1-1.24.77l1.59.13a2.57,2.57,0,0,1,1.94-.72Z"
             style="fill:#f0997a"
             id="path142" />
        </g>
      </g>
    </g>
  </g>
</svg>
