<?xml version="1.0" encoding="UTF-8" standalone="no"?>
<svg
   viewBox="0 0 500 500"
   version="1.1"
   id="svg89"
   sodipodi:docname="Critical thinking-pana.svg"
   inkscape:export-filename="..\..\Pictures\BuildThatIdea\brains.svg"
   inkscape:export-xdpi="96"
   inkscape:export-ydpi="96"
   inkscape:version="1.4 (86a8ad7, 2024-10-11)"
   xmlns:inkscape="http://www.inkscape.org/namespaces/inkscape"
   xmlns:sodipodi="http://sodipodi.sourceforge.net/DTD/sodipodi-0.dtd"
   xmlns="http://www.w3.org/2000/svg"
   xmlns:svg="http://www.w3.org/2000/svg">
  <defs
     id="defs89" />
  <sodipodi:namedview
     id="namedview89"
     pagecolor="#505050"
     bordercolor="#ffffff"
     borderopacity="1"
     inkscape:showpageshadow="0"
     inkscape:pageopacity="0"
     inkscape:pagecheckerboard="1"
     inkscape:deskcolor="#505050"
     inkscape:zoom="2.162"
     inkscape:cx="249.76873"
     inkscape:cy="250"
     inkscape:window-width="2400"
     inkscape:window-height="1321"
     inkscape:window-x="6391"
     inkscape:window-y="642"
     inkscape:window-maximized="1"
     inkscape:current-layer="freepik--Character--inject-163" />
  <g
     id="freepik--Head--inject-163"
     style="display:none">
    <path
       d="M 243.06,55.63 C 210,41.65 168.75,41 135.13,53.55 c -91,34.07 -82.19,141.86 -82.19,141.86 0,0 -25.28,65.36 -30.27,75.67 a 8.24,8.24 0 0 0 -0.83,3.58 v 0 a 8.12,8.12 0 0 0 8.16,8.13 h 26.64 c 0,0 -0.74,43.69 0,62.95 0.74,19.26 23.7,20.73 23.7,20.73 l 48.13,-3 L 115,468 H 303.47 L 283,324.39 314.17,221 a 163.83,163.83 0 0 0 7.22,-37.6 C 326.5,108.68 277.71,70.28 243.06,55.63 Z"
       style="fill:#e0e0e0"
       id="path1" />
    <path
       d="m 243.06,55.63 1.3,0.55 c 0.86,0.37 2.15,0.92 3.82,1.72 a 138.6,138.6 0 0 1 14.34,7.81 c 1.53,0.92 3.09,2 4.76,3.1 1.67,1.1 3.37,2.33 5.12,3.68 a 126.72,126.72 0 0 1 11,9.26 122.43,122.43 0 0 1 22.27,27.84 119.28,119.28 0 0 1 14.6,41.75 150.18,150.18 0 0 1 -1.46,52.2 q -1.38,6.9 -3.4,13.87 -2.02,6.97 -4.24,14.1 -4.32,14.31 -8.87,29.43 -9.12,30.22 -19.16,63.52 v -0.1 c 6.25,43.72 13.19,92.25 20.54,143.62 v 0.29 h -189 v -0.29 c 0.43,-3.36 0.9,-7 1.37,-10.65 4.1,-31.89 8.13,-63.24 12.07,-93.86 l 0.27,0.29 -48.13,3 v 0 A 35.38,35.38 0 0 1 68.14,363.35 21.46,21.46 0 0 1 59,355 a 18.67,18.67 0 0 1 -2.17,-5.86 37.92,37.92 0 0 1 -0.47,-6.18 c -0.12,-4.1 -0.18,-8.19 -0.21,-12.26 -0.11,-16.27 0.06,-32.26 0.3,-47.94 L 56.69,283 H 30 a 8.42,8.42 0 0 1 -2.06,-0.25 8.1,8.1 0 0 1 -3.62,-1.92 8.31,8.31 0 0 1 -2.1,-9.42 l 0.82,-1.82 c 0.56,-1.2 1.07,-2.42 1.59,-3.64 2.06,-4.86 4,-9.71 6,-14.54 7.76,-19.29 15.07,-38.05 22.09,-56.11 v 0.1 a 172.47,172.47 0 0 1 1.39,-31.65 c 0.67,-5.13 1.61,-10.15 2.64,-15.08 1.03,-4.93 2.34,-9.75 3.87,-14.43 a 144.88,144.88 0 0 1 11.18,-26.36 120.32,120.32 0 0 1 15.54,-22.1 119,119 0 0 1 18.76,-17 l 5,-3.41 c 0.82,-0.59 1.69,-1.07 2.55,-1.57 l 2.56,-1.49 2.53,-1.48 c 0.84,-0.49 1.73,-0.88 2.59,-1.32 L 126.47,57 c 1.72,-0.77 3.46,-1.45 5.17,-2.16 1.71,-0.71 3.38,-1.45 5.1,-2 1.72,-0.55 3.4,-1.19 5.08,-1.73 l 5,-1.46 c 1.66,-0.51 3.34,-0.82 5,-1.23 1.66,-0.41 3.26,-0.79 4.88,-1.06 l 4.8,-0.89 4.7,-0.65 2.31,-0.32 2.28,-0.21 4.48,-0.41 4.36,-0.21 c 1.43,-0.07 2.84,-0.16 4.23,-0.13 2.78,0 5.48,-0.07 8.08,0.09 l 3.83,0.16 c 1.26,0.07 2.48,0.21 3.69,0.3 a 156.28,156.28 0 0 1 24.24,4 147.62,147.62 0 0 1 14.5,4.6 c 3.2,1.26 4.84,1.93 4.84,1.93 l -4.87,-1.87 a 150.86,150.86 0 0 0 -14.51,-4.53 156.79,156.79 0 0 0 -24.21,-3.95 c -1.21,-0.09 -2.44,-0.23 -3.69,-0.29 L 192,44.84 c -2.6,-0.16 -5.29,-0.09 -8.06,-0.08 -1.39,0 -2.8,0.06 -4.23,0.13 l -4.35,0.22 -4.47,0.42 -2.28,0.21 -2.31,0.32 -4.69,0.66 -4.79,0.9 c -1.62,0.27 -3.24,0.66 -4.87,1.06 -1.63,0.4 -3.32,0.72 -5,1.24 l -5,1.45 c -1.68,0.55 -3.36,1.15 -5.07,1.74 -1.71,0.59 -3.38,1.3 -5.09,2 -1.71,0.7 -3.44,1.39 -5.16,2.16 l -5.11,2.54 c -0.86,0.44 -1.74,0.83 -2.58,1.31 l -2.53,1.48 -2.55,1.49 c -0.85,0.5 -1.72,1 -2.53,1.57 l -5,3.4 A 119.33,119.33 0 0 0 87.6,86 121,121 0 0 0 72.12,108 145.56,145.56 0 0 0 61,134.39 c -1.52,4.66 -2.71,9.49 -3.84,14.39 -1.13,4.9 -2,9.94 -2.63,15.05 a 171.66,171.66 0 0 0 -1.37,31.56 v 0.05 0.05 q -10.5,27.1 -22.06,56.13 c -1.94,4.82 -3.92,9.68 -6,14.55 -0.52,1.21 -1,2.44 -1.59,3.64 a 13.11,13.11 0 0 0 -1.34,3.67 7.85,7.85 0 0 0 2.51,7 7.66,7.66 0 0 0 3.42,1.81 16.18,16.18 0 0 0 4,0.23 h 24.79 v 0.25 c -0.24,15.68 -0.4,31.67 -0.29,47.93 0,4.07 0.09,8.15 0.21,12.25 a 37.54,37.54 0 0 0 0.46,6.1 18.51,18.51 0 0 0 2.12,5.7 21,21 0 0 0 9,8.09 34.78,34.78 0 0 0 11.93,3.35 v 0 l 48.14,-3 h 0.31 v 0.31 c -3.94,30.62 -8,62 -12.06,93.87 -0.47,3.65 -0.94,7.28 -1.37,10.64 l -0.26,-0.29 H 303.47 L 303.23,468 C 295.9,416.63 288.98,368.1 282.74,324.38 v -0.05 -0.05 l 19.19,-63.51 q 4.57,-15.12 8.89,-29.42 l 4.26,-14.09 q 2,-7 3.4,-13.84 a 150,150 0 0 0 1.5,-52.08 118.87,118.87 0 0 0 -14.51,-41.67 122.84,122.84 0 0 0 -22.17,-27.78 128.58,128.58 0 0 0 -11,-9.27 c -1.74,-1.35 -3.48,-2.53 -5.1,-3.69 -1.62,-1.16 -3.22,-2.18 -4.76,-3.1 A 139.85,139.85 0 0 0 248.15,58 c -1.66,-0.81 -3,-1.37 -3.8,-1.75 z"
       style="fill:#263238"
       id="path3" />
    <path
       d="m 245.90747,465.68733 c 0,0 -11.69,-82.53 -13.47,-91.17 -4.28,-20.73 -16,-22 -23,-29.09 -7,-7.09 -15.22,-13.23 -20,-21.95 a 33.91,33.91 0 0 1 23.61,-49.62 c 17.09,-3.15 36.1,6.73 51.39,-1.51 9.16,-4.93 14.1,-15.07 17.91,-24.74 10.88,-27.57 17.51,-57.32 14.94,-86.84 -2.57,-29.52 -15.05,-58.83 -37.5,-78.170003 -23.54,-20.28 -56.53,-28 -87.25,-23.47 -30.72,4.53 -53.85,17.56 -76.000005,39.34 -10.71,10.510003 -24,36.000003 -21.47,50.770003 4.69,27.69 45.650005,26.8 50.590005,54.45 3.11,17.47 -11.92,31.91 -24.76,44.16 -12.210005,11.64 -14.560005,21.28 -14.560005,21.28 a 51,51 0 0 0 30.610005,67.56 c 10.74,3.71 20,2.92 30.66,6.87 10.66,3.95 15.69,13.28 15.87,24.65 0.18,11.15 -3.1,98.65 -3.1,98.65 z"
       style="fill:#fafafa"
       id="path4" />
    <path
       d="m 246.37,468 -85.29,0.13 h -0.14 V 468 c 0.47,-14.35 1,-30.41 1.57,-48 q 0.39,-13.22 0.81,-27.55 0.18,-7.17 0.35,-14.61 c 0,-4.95 0.43,-10.05 -0.74,-15.05 a 24,24 0 0 0 -7.65,-13.21 c -4,-3.5 -9.3,-5.14 -14.58,-6.34 -5.28,-1.2 -10.88,-1.68 -16.41,-2.86 A 51.54,51.54 0 0 1 94.85,323 a 49.59,49.59 0 0 1 -9,-15.6 52,52 0 0 1 0.75,-36.68 v 0 a 33.33,33.33 0 0 1 3.12,-7 55.44,55.44 0 0 1 4.28,-6.51 69.8,69.8 0 0 1 5.14,-5.9 c 1.84,-1.87 3.76,-3.66 5.65,-5.5 a 141.11,141.11 0 0 0 10.92,-11.58 53.65,53.65 0 0 0 8.44,-13.69 33.32,33.32 0 0 0 1.21,-3.87 c 0.15,-0.66 0.33,-1.32 0.46,-2 l 0.25,-2 c 0,-0.34 0.09,-0.68 0.12,-1 v -1 -2 l -0.24,-2 a 12.51,12.51 0 0 0 -0.33,-2 27.54,27.54 0 0 0 -8,-14.24 c -4,-3.95 -8.76,-7 -13.62,-9.9 -4.86,-2.9 -9.91,-5.67 -14.61,-9 a 47.41,47.41 0 0 1 -6.62,-5.65 29.33,29.33 0 0 1 -5.08,-7.14 27.15,27.15 0 0 1 -2.57,-8.42 c -0.07,-0.74 -0.16,-1.48 -0.21,-2.22 v -2.22 a 16.44,16.44 0 0 1 0.17,-2.21 c 0.09,-0.73 0.14,-1.48 0.27,-2.21 a 71.85,71.85 0 0 1 5.38,-17 97.92,97.92 0 0 1 8.82,-15.67 64.94,64.94 0 0 1 5.63,-7.12 l 1.57,-1.65 1.65,-1.57 c 1.11,-1 2.17,-2.12 3.32,-3.12 A 155.58,155.58 0 0 1 116,83.57 a 134.68,134.68 0 0 1 15.65,-9.8 123.84,123.84 0 0 1 17.09,-7.37 c 2.45,-0.9 5,-1.59 7.46,-2.35 l 3.78,-1 1.9,-0.48 1.9,-0.4 a 140.38,140.38 0 0 1 15.33,-2.42 c 2.57,-0.16 5.14,-0.45 7.71,-0.45 l 3.85,-0.08 3.85,0.11 1.92,0.05 1.91,0.15 3.83,0.29 3.79,0.49 1.9,0.24 1.88,0.33 3.75,0.67 c 1.24,0.26 2.48,0.57 3.71,0.85 2.49,0.51 4.89,1.31 7.33,2 a 108.19,108.19 0 0 1 14,5.51 101.31,101.31 0 0 1 13,7.37 l 3,2.16 c 0.5,0.37 1,0.71 1.5,1.09 l 1.45,1.17 2.88,2.33 2.73,2.5 1.37,1.25 1.29,1.32 2.57,2.64 2.41,2.77 1.26,1.4 1.12,1.44 2.25,2.89 2.09,3 1,1.5 c 0.34,0.5 0.65,1 1,1.54 l 1.92,3.08 a 122.86,122.86 0 0 1 11.46,26.27 134,134 0 0 1 5.2,27.58 159,159 0 0 1 -0.24,27.44 196.83,196.83 0 0 1 -4.47,26.4 235.58,235.58 0 0 1 -7.49,24.95 c -3,8 -5.85,16.06 -10.68,22.91 a 38.28,38.28 0 0 1 -4,4.77 28.47,28.47 0 0 1 -4.87,3.82 28.87,28.87 0 0 1 -11.53,3.8 56.3,56.3 0 0 1 -12,-0.1 c -3.94,-0.38 -7.81,-1 -11.66,-1.41 a 80.53,80.53 0 0 0 -11.46,-0.67 l -2.82,0.16 -2.79,0.39 a 30,30 0 0 0 -5.4,1.4 34.48,34.48 0 0 0 -16.95,13.11 32.36,32.36 0 0 0 -4.41,9.53 34.73,34.73 0 0 0 0.54,20.08 34,34 0 0 0 4.44,8.73 c 3.73,5.31 8.49,9.56 13,13.78 1.13,1.05 2.23,2.11 3.32,3.17 1.09,1.06 2.12,2.15 3.26,3.1 2.3,1.89 4.82,3.42 7.19,5.1 a 34,34 0 0 1 6.43,5.67 31.66,31.66 0 0 1 4.49,7 56.39,56.39 0 0 1 4,15.16 c 0.79,5 1.51,9.78 2.19,14.38 1.33,9.2 2.55,17.61 3.65,25.17 2.14,15.13 3.8,26.88 4.93,34.85 0.55,4 1,7 1.25,9.07 0.25,2.07 0.39,2.91 0.41,3.09 -0.1,-0.71 -2.43,-16.78 -6.79,-47 q -1.67,-11.34 -3.7,-25.16 -1,-6.9 -2.21,-14.38 a 55.66,55.66 0 0 0 -4,-15.08 31.68,31.68 0 0 0 -4.44,-6.9 33.84,33.84 0 0 0 -6.39,-5.62 c -2.36,-1.67 -4.89,-3.19 -7.21,-5.11 -1.16,-1 -2.22,-2.05 -3.29,-3.11 -1.07,-1.06 -2.19,-2.11 -3.31,-3.16 -4.47,-4.21 -9.25,-8.46 -13,-13.82 a 34.85,34.85 0 0 1 -4.49,-8.81 35,35 0 0 1 -0.56,-20.3 32.62,32.62 0 0 1 4.45,-9.65 34.87,34.87 0 0 1 17.13,-13.27 30.74,30.74 0 0 1 5.47,-1.42 l 2.82,-0.39 2.85,-0.17 a 82.69,82.69 0 0 1 11.52,0.66 c 7.69,0.86 15.55,2.4 23.52,1.5 a 28.41,28.41 0 0 0 11.26,-3.77 27.46,27.46 0 0 0 4.79,-3.76 38.09,38.09 0 0 0 4,-4.7 c 4.77,-6.79 7.65,-14.82 10.61,-22.82 a 237,237 0 0 0 7.52,-24.89 196,196 0 0 0 4.44,-26.33 159,159 0 0 0 0.24,-27.36 134.14,134.14 0 0 0 -5.2,-27.47 122.11,122.11 0 0 0 -11.4,-26.16 l -1.91,-3.07 c -0.33,-0.51 -0.64,-1 -1,-1.53 l -1,-1.49 -2.08,-3 -2.23,-2.87 -1.13,-1.44 -1.19,-1.37 -2.46,-2.74 -2.55,-2.62 -1.29,-1.32 -1.35,-1.24 -2.72,-2.48 -2.87,-2.32 -1.4,-1.12 c -0.48,-0.38 -1,-0.72 -1.49,-1.09 l -3,-2.14 a 101.08,101.08 0 0 0 -12.95,-7.34 105.25,105.25 0 0 0 -14,-5.47 c -2.42,-0.67 -4.81,-1.47 -7.29,-2 -1.23,-0.28 -2.46,-0.58 -3.69,-0.84 l -3.74,-0.67 -1.87,-0.33 -1.89,-0.24 -3.78,-0.48 -3.8,-0.29 -1.91,-0.15 h -1.91 l -3.83,-0.11 -3.83,0.08 c -2.57,0 -5.12,0.29 -7.68,0.45 a 137.29,137.29 0 0 0 -15.27,2.41 l -1.9,0.4 -1.88,0.47 -3.77,1 c -2.48,0.75 -5,1.43 -7.43,2.33 a 122.19,122.19 0 0 0 -17,7.34 A 133.76,133.76 0 0 0 116.3,84 157.58,157.58 0 0 0 102.18,95.56 c -1.15,1 -2.21,2.08 -3.31,3.11 l -1.64,1.57 -1.56,1.63 a 65.29,65.29 0 0 0 -5.58,7.06 96.19,96.19 0 0 0 -8.78,15.59 70.88,70.88 0 0 0 -5.31,16.82 c -0.13,0.73 -0.18,1.46 -0.27,2.18 a 16,16 0 0 0 -0.17,2.18 v 2.19 c 0.05,0.72 0.14,1.44 0.21,2.16 a 26.47,26.47 0 0 0 2.52,8.26 28.45,28.45 0 0 0 5,7 47.18,47.18 0 0 0 6.55,5.59 c 4.66,3.35 9.68,6.1 14.57,9 4.89,2.9 9.71,6 13.72,10 a 28.07,28.07 0 0 1 8.11,14.49 12.82,12.82 0 0 1 0.33,2.06 l 0.24,2.07 v 3.13 c 0,0.34 -0.08,0.68 -0.12,1 l -0.26,2.06 c -0.13,0.67 -0.31,1.34 -0.46,2 a 33.36,33.36 0 0 1 -1.24,3.94 53.3,53.3 0 0 1 -8.52,13.81 138.93,138.93 0 0 1 -11,11.62 c -1.89,1.84 -3.81,3.64 -5.64,5.49 a 67.41,67.41 0 0 0 -5.11,5.86 54,54 0 0 0 -4.29,6.39 32.31,32.31 0 0 0 -3.17,6.99 v 0 0 a 51.58,51.58 0 0 0 -0.76,36.36 49.29,49.29 0 0 0 8.92,15.46 51.29,51.29 0 0 0 29.21,17.37 c 5.5,1.17 11,1.67 16.41,2.87 a 53.57,53.57 0 0 1 7.84,2.32 23.39,23.39 0 0 1 14.68,17.51 c 1.18,5.07 0.77,10.19 0.74,15.13 -0.03,4.94 -0.25,9.84 -0.37,14.62 q -0.43,14.32 -0.83,27.55 c -0.6,17.61 -1.14,33.67 -1.63,48 l -0.13,-0.13 z"
       style="fill:#263238"
       id="path23" />
  </g>
  <g
     id="freepik--Character--inject-163"
     style="display:inline">
    <path
       d="m 287.43,229.78 c -1,-9.9 -2.47,-19.86 -6.09,-29.13 -3.62,-9.27 -9.57,-17.88 -17.95,-23.24 l -2.16,2 a 12.49,12.49 0 0 0 -21.81,-3.34 12.33,12.33 0 0 0 -13.48,18.74 11.31,11.31 0 0 0 -5,20.51 16.45,16.45 0 0 0 10.14,28.89 13,13 0 0 0 22.72,11.41 c -0.46,5.93 4.28,11.54 10.06,12.95 5.78,1.41 12.07,-0.92 16.28,-5.12 4.21,-4.2 6.53,-10 7.43,-15.88 0.9,-5.88 0.43,-11.87 -0.14,-17.79 z"
       style="fill:#263238"
       id="path46" />
    <path
       d="m 260.76,185.9 c -5.76,1.86 -6.94,6.53 -8.14,10.42 -2.57,8.37 0.33,20.76 5,28.16 4.67,7.4 9.82,11.16 18.49,12.41 Q 276.54,217 277,197 Z"
       style="fill:#c53aae"
       id="path47" />
    <path
       d="m 257.51,208.78 a 13.81,13.81 0 0 1 1.23,-17.66 c -2.53,-3.17 -1.62,-8.05 0.94,-11.19 2.56,-3.14 6.38,-4.94 10.05,-6.64 2,-9.27 12.43,-15.79 21.66,-13.57 4.81,-7.06 15.05,-8.17 23.25,-5.78 a 21.93,21.93 0 0 0 6.09,1.33 35.05,35.05 0 0 0 4.55,-0.63 c 8.35,-1.12 16.63,4.75 19.88,12.52 a 15.42,15.42 0 0 0 1.78,3.62 c 1.08,1.39 2.72,2.21 4.12,3.29 a 13.32,13.32 0 0 1 5.11,9.86 c 0.13,3.24 -0.9,6.68 0.47,9.62 0.68,1.48 1.92,2.67 2.45,4.21 1.54,4.45 -3.39,9 -2.48,13.63 0.19,0.94 0.61,1.82 0.88,2.74 a 8.22,8.22 0 0 1 -0.51,5.75 c -0.65,1.37 -1.72,2.62 -1.81,4.14 a 13.72,13.72 0 0 0 0.68,3.37 c 0.56,2.76 -5.39,13.4 -7.78,14.9 l -71.26,0.64 a 13.32,13.32 0 0 1 -10.31,-11.47 4.85,4.85 0 0 0 -0.66,-2.62 5.75,5.75 0 0 0 -1.95,-1.26 c -4.59,-2.47 -5.14,-8.77 -4.66,-14 a 6.14,6.14 0 0 0 0,-2.18 7.87,7.87 0 0 0 -1.72,-2.62 z"
       style="fill:#263238"
       id="path48" />
    <path
       d="m 277.93,208.88 c -0.21,-12.61 7.7,-27.1 20.23,-33.27 7.89,-3.89 14.06,-3.91 18.21,-4.4 a 28.85,28.85 0 0 1 16.8,3.53 c 3.93,0.92 18.33,14.1 19.08,28.4 0.83,15.89 1.21,35.32 -0.8,47.15 -4,23.78 -22.33,26.62 -22.33,26.62 0,0 1.71,39.53 1.71,39.53 L 295.67,345.25 282,299.49 Z"
       style="fill:#ffbf9d"
       id="path49" />
    <path
       d="m 329.12,276.91 a 60.8,60.8 0 0 1 -31.92,-8.85 c 0,0 8.32,16.94 32.19,14.94 z"
       style="fill:#ff9a6c"
       id="path50" />
    <path
       d="m 281.52,231.5 c 0,-1.77 -2,-6 -3.74,-6.27 -4.67,-0.78 -13.11,-0.49 -13.31,11.39 -0.28,16.24 16.08,13.17 16.12,12.71 0.04,-0.46 0.88,-11.7 0.93,-17.83 z"
       style="fill:#ffbf9d"
       id="path51" />
    <path
       d="m 276.21,243.32 c -0.07,-0.06 -0.29,0.19 -0.77,0.4 a 2.8,2.8 0 0 1 -2.11,0 c -1.71,-0.66 -3.11,-3.41 -3.13,-6.34 a 9.22,9.22 0 0 1 0.86,-4 3.26,3.26 0 0 1 2.16,-2.13 1.43,1.43 0 0 1 1.66,0.8 c 0.21,0.46 0.1,0.78 0.19,0.81 0.09,0.03 0.35,-0.26 0.23,-0.94 a 1.79,1.79 0 0 0 -0.62,-1 2.16,2.16 0 0 0 -1.56,-0.44 4,4 0 0 0 -3,2.47 9.78,9.78 0 0 0 -1.06,4.51 c 0.05,3.27 1.67,6.37 4,7.09 a 3,3 0 0 0 2.59,-0.39 c 0.53,-0.45 0.62,-0.81 0.56,-0.84 z"
       style="fill:#ff9a6c"
       id="path52" />
    <path
       d="m 355.73,200.74 c -0.52,-5.9 -2.87,-11.5 -5.71,-16.69 a 34.64,34.64 0 0 0 -7.34,-9.78 37.93,37.93 0 0 0 -8.77,-5.29 c -8.14,-3.86 -17.21,-7.14 -26,-5.16 -4.72,1.07 -9,3.57 -13.09,6.08 a 49,49 0 0 0 -9,6.49 36.74,36.74 0 0 0 -5.85,7.77 50.52,50.52 0 0 0 -7.24,21.84 c -0.53,7.73 -6.38,14.57 -1.84,20.85 0.35,0.49 8.42,2.16 9,2.38 1.31,0.53 2.75,-0.9 2.74,-2.31 a 5.2,5.2 0 0 0 -2,-3.58 c 2,-0.07 3.39,-2.3 3.26,-4.31 -0.13,-2.01 -1.31,-3.77 -2.5,-5.39 a 1.55,1.55 0 0 1 -0.35,-0.7 c -0.09,-0.68 0.69,-1.11 1.28,-1.46 a 5.46,5.46 0 0 0 0.58,-8.56 7.33,7.33 0 0 0 5,-9.28 2.37,2.37 0 0 1 -0.24,-1.82 c 0.27,-0.54 0.94,-0.71 1.52,-0.88 a 9.31,9.31 0 0 0 6.24,-10.49 23,23 0 0 0 6.74,-0.3 7.86,7.86 0 0 0 5.32,-3.83 8.8,8.8 0 0 0 14.88,0.79 22.91,22.91 0 0 0 11.15,-1.72 10.88,10.88 0 0 0 7.09,7.63 c 0.67,0.22 1.44,0.43 1.76,1.06 a 2.44,2.44 0 0 1 0.15,1.32 c -0.12,2.26 1.43,3.23 2.68,5.13 1.25,1.9 3.43,4.71 5.61,4.09 -0.24,3.86 1.83,6.67 5.09,8.76 z"
       style="fill:#263238"
       id="path53" />
    <path
       d="m 359.09,197.76 a 6.22,6.22 0 0 0 -0.86,-1.75 c -0.34,-0.55 -0.82,-1.18 -1.27,-2 a 7.56,7.56 0 0 1 -0.88,-3 24.13,24.13 0 0 1 0.1,-4 17.91,17.91 0 0 0 -0.08,-4.83 13.62,13.62 0 0 0 -2.1,-5.18 13.46,13.46 0 0 0 -2,-2.32 20.55,20.55 0 0 0 -2.55,-1.93 10.05,10.05 0 0 1 -2.45,-2.15 13.5,13.5 0 0 1 -1.51,-3.07 21.74,21.74 0 0 0 -10.14,-11.21 19.71,19.71 0 0 0 -3.9,-1.51 17.81,17.81 0 0 0 -4.26,-0.52 20.16,20.16 0 0 0 -2.19,0.16 c -0.73,0.1 -1.45,0.25 -2.17,0.37 a 10.41,10.41 0 0 1 -4.34,0 c -1.45,-0.3 -2.87,-0.84 -4.37,-1.22 a 28.08,28.08 0 0 0 -4.6,-0.86 29,29 0 0 0 -4.76,-0.08 24.47,24.47 0 0 0 -4.77,0.84 16,16 0 0 0 -8.22,5.32 l -0.61,0.8 0.26,-0.1 a 18.83,18.83 0 0 0 -21.94,13.75 l 0.13,-0.16 a 49.77,49.77 0 0 0 -5.72,3 17.06,17.06 0 0 0 -4.69,4.12 11.14,11.14 0 0 0 -2.16,5.59 7.69,7.69 0 0 0 1.51,5.5 V 191 a 13.52,13.52 0 0 0 -3.81,8.31 13.81,13.81 0 0 0 1.63,8.08 12.91,12.91 0 0 0 1.06,1.62 c 0.39,0.5 0.79,1 1.11,1.46 a 3.5,3.5 0 0 1 0.56,1.6 9.44,9.44 0 0 1 -0.06,1.68 26.62,26.62 0 0 0 0.12,6.17 13.13,13.13 0 0 0 1.56,4.7 7.9,7.9 0 0 0 2.51,2.66 c 0.83,0.56 1.57,0.78 2,1.09 a 4.75,4.75 0 0 1 0.59,0.49 1.89,1.89 0 0 0 -0.55,-0.54 c -0.41,-0.33 -1.15,-0.57 -2,-1.14 a 8,8 0 0 1 -2.41,-2.65 12.87,12.87 0 0 1 -1.49,-4.64 27.41,27.41 0 0 1 -0.07,-6.11 10,10 0 0 0 0.08,-1.74 3.78,3.78 0 0 0 -0.6,-1.73 18.27,18.27 0 0 0 -1.12,-1.5 13.07,13.07 0 0 1 -2.57,-9.47 13.08,13.08 0 0 1 3.73,-8 l 0.13,-0.13 -0.11,-0.14 a 7.27,7.27 0 0 1 -1.41,-5.22 10.75,10.75 0 0 1 2.1,-5.36 16.66,16.66 0 0 1 4.57,-4 52.09,52.09 0 0 1 5.67,-2.92 h 0.11 v -0.12 A 18.4,18.4 0 0 1 291.33,160 h 0.16 l 0.1,-0.14 c 0.2,-0.25 0.39,-0.51 0.59,-0.77 a 15.61,15.61 0 0 1 8,-5.16 24.84,24.84 0 0 1 4.67,-0.82 28,28 0 0 1 4.67,0.08 27.41,27.41 0 0 1 4.48,0.81 c 1.47,0.37 2.9,0.91 4.4,1.22 a 11.44,11.44 0 0 0 2.27,0.25 13.82,13.82 0 0 0 2.24,-0.22 c 0.73,-0.13 1.44,-0.28 2.15,-0.38 0.71,-0.1 1.42,-0.16 2.13,-0.16 a 17.33,17.33 0 0 1 4.15,0.5 19,19 0 0 1 3.81,1.46 21.47,21.47 0 0 1 10,11 13.44,13.44 0 0 0 1.57,3.15 10.4,10.4 0 0 0 2.54,2.22 19.78,19.78 0 0 1 2.53,1.88 13.61,13.61 0 0 1 1.94,2.25 13.42,13.42 0 0 1 2.08,5 17.86,17.86 0 0 1 0.12,4.76 23.14,23.14 0 0 0 -0.06,4.05 7.6,7.6 0 0 0 0.94,3.1 c 0.47,0.82 1,1.44 1.32,2 a 9.21,9.21 0 0 1 0.73,1.25 c 0.14,0.27 0.22,0.43 0.23,0.43 z"
       style="fill:#455a64"
       id="path54" />
    <path
       d="m 299,156.22 c 0,0 0.44,-0.25 1.23,-0.63 a 10.9,10.9 0 0 1 3.55,-1 10.27,10.27 0 0 1 5.33,0.82 10.58,10.58 0 0 1 4.82,4.44 8.48,8.48 0 0 1 0.8,1.84 2,2 0 0 1 -0.14,1.71 l -0.4,0.55 0.66,-0.18 a 6.72,6.72 0 0 1 5,0.64 6.46,6.46 0 0 1 2.73,3 7,7 0 0 1 0.61,2.68 c 0,0.65 0,1 0,1 0,0 0,-0.08 0.08,-0.25 a 4.94,4.94 0 0 0 0.09,-0.76 6.82,6.82 0 0 0 -3.3,-6.07 7.09,7.09 0 0 0 -5.36,-0.74 l 0.26,0.37 a 2.46,2.46 0 0 0 0.22,-2.11 9.42,9.42 0 0 0 -0.84,-2 10.83,10.83 0 0 0 -5.07,-4.61 10.47,10.47 0 0 0 -9.15,0.42 7.07,7.07 0 0 0 -0.87,0.56 c -0.12,0.22 -0.25,0.3 -0.25,0.32 z"
       style="fill:#455a64"
       id="path55" />
    <path
       d="m 272.54,174.66 c 0,0 0.17,0.23 0.56,0.58 a 11,11 0 0 0 1.83,1.29 7.79,7.79 0 0 0 3.23,1 5.78,5.78 0 0 0 4,-1.19 l -0.36,-0.06 0.47,0.67 c 0.17,0.22 0.36,0.43 0.55,0.65 a 9.89,9.89 0 0 0 4,2.56 10,10 0 0 0 3.86,0.51 9,9 0 0 0 2.57,-0.56 3.11,3.11 0 0 0 0.85,-0.45 14.13,14.13 0 0 1 -3.43,0.67 10.45,10.45 0 0 1 -3.71,-0.6 9.72,9.72 0 0 1 -3.82,-2.47 c -0.18,-0.2 -0.36,-0.4 -0.52,-0.6 l -0.45,-0.63 -0.16,-0.23 -0.2,0.17 a 5.45,5.45 0 0 1 -3.71,1.13 7.92,7.92 0 0 1 -3.11,-0.85 c -1.56,-0.86 -2.4,-1.66 -2.45,-1.59 z"
       style="fill:#455a64"
       id="path56" />
    <path
       d="m 263.84,189.65 c 0,0 0,0.11 0,0.3 a 2.61,2.61 0 0 0 0.35,0.79 4.36,4.36 0 0 0 2.6,1.76 8.28,8.28 0 0 0 4.65,-0.47 24.47,24.47 0 0 0 2.57,-1 4.46,4.46 0 0 0 2.26,-2 c 0,-0.09 0.07,-0.18 0.1,-0.26 l -0.38,0.11 a 18.78,18.78 0 0 0 4.79,2.93 8.41,8.41 0 0 0 4.56,0.51 6,6 0 0 0 2.82,-1.26 2.92,2.92 0 0 0 0.59,-0.6 c 0.12,-0.15 0.18,-0.23 0.16,-0.24 -0.02,-0.01 -0.29,0.28 -0.86,0.69 a 6.19,6.19 0 0 1 -2.76,1.07 8.28,8.28 0 0 1 -4.34,-0.59 19.13,19.13 0 0 1 -4.66,-2.89 l -0.25,-0.21 -0.13,0.32 -0.09,0.22 a 4,4 0 0 1 -2,1.79 c -0.83,0.4 -1.7,0.7 -2.51,1 a 8.18,8.18 0 0 1 -4.42,0.55 4.27,4.27 0 0 1 -2.52,-1.53 5.88,5.88 0 0 1 -0.53,-0.99 z"
       style="fill:#455a64"
       id="path57" />
    <path
       d="m 316.29,223.5 a 3,3 0 0 1 -2.8,3.13 2.89,2.89 0 0 1 -3.19,-2.63 3,3 0 0 1 2.8,-3.13 2.89,2.89 0 0 1 3.19,2.63 z"
       style="fill:#263238"
       id="path58" />
    <path
       d="m 344.55,221.84 a 3,3 0 0 1 -2.8,3.12 2.87,2.87 0 0 1 -3.18,-2.61 3,3 0 0 1 2.79,-3.12 2.88,2.88 0 0 1 3.19,2.61 z"
       style="fill:#263238"
       id="path59" />
    <path
       d="m 346.58,211.87 c -0.36,0.41 -2.69,-1.21 -5.92,-1.09 -3.23,0.12 -5.55,1.8 -5.91,1.42 -0.18,-0.17 0.18,-0.89 1.19,-1.68 a 8.26,8.26 0 0 1 4.71,-1.62 7.9,7.9 0 0 1 4.73,1.36 c 1.02,0.74 1.38,1.43 1.2,1.61 z"
       style="fill:#263238"
       id="path60" />
    <path
       d="m 314.44,213.48 c -0.4,0.37 -2.56,-1.47 -5.78,-1.69 -3.22,-0.22 -5.7,1.22 -6,0.8 -0.15,-0.18 0.27,-0.86 1.36,-1.54 a 8.22,8.22 0 0 1 4.86,-1.13 7.89,7.89 0 0 1 4.56,1.84 c 0.91,0.83 1.19,1.56 1,1.72 z"
       style="fill:#263238"
       id="path61" />
    <path
       d="m 326.49,237.75 c 0,-0.18 2,-0.6 5.22,-1.12 0.82,-0.11 1.6,-0.3 1.72,-0.87 a 4.14,4.14 0 0 0 -0.63,-2.42 l -2.64,-6.21 c -3.68,-8.84 -6.37,-16.12 -6,-16.26 0.37,-0.14 3.63,6.9 7.3,15.74 q 1.33,3.27 2.54,6.24 a 4.76,4.76 0 0 1 0.54,3.23 2.11,2.11 0 0 1 -1.32,1.25 5.63,5.63 0 0 1 -1.4,0.24 c -3.28,0.28 -5.31,0.36 -5.33,0.18 z"
       style="fill:#263238"
       id="path62" />
    <path
       d="m 321.49,242.55 a 4.64,4.64 0 0 0 -3.13,1.81 c -0.71,1 -1.22,3.39 -0.52,4.31 0.7,0.92 3.27,0.78 5.11,0.55 a 2.23,2.23 0 0 0 1.84,-1.5 l 0.73,-2.09 a 2.26,2.26 0 0 0 -1.41,-2.9 6.19,6.19 0 0 0 -2.62,-0.18 z"
       style="fill:#ff9a6c"
       id="path63" />
    <path
       d="m 315.8,200.61 c -0.48,0.81 -3.57,-0.22 -7.38,-0.5 -3.81,-0.28 -7,0.16 -7.37,-0.71 -0.15,-0.42 0.54,-1.13 1.91,-1.73 a 12.88,12.88 0 0 1 11.24,0.93 c 1.26,0.82 1.8,1.63 1.6,2.01 z"
       style="fill:#263238"
       id="path64" />
    <path
       d="m 346,205.37 c -0.53,0.83 -3.2,0.49 -6.27,0.94 -3.07,0.45 -5.58,1.4 -6.3,0.74 -0.32,-0.32 0,-1.12 1,-2 a 9.87,9.87 0 0 1 4.89,-2 9.69,9.69 0 0 1 5.23,0.66 c 1.19,0.57 1.67,1.29 1.45,1.66 z"
       style="fill:#263238"
       id="path65" />
    <path
       d="m 325.19,248.85 c -0.07,0 0,-0.22 0.1,-0.52 a 4.2,4.2 0 0 0 0.33,-1.21 c 0,-0.47 -0.17,-1.05 -0.64,-1.15 a 3.63,3.63 0 0 0 -1,0 c -0.4,0 -0.82,0 -1.25,0.07 -3.45,0.26 -6.16,1.15 -6.27,0.87 -0.11,-0.28 2.55,-1.63 6.19,-1.91 0.45,0 0.89,-0.05 1.31,-0.05 a 3.69,3.69 0 0 1 1.36,0.16 1.65,1.65 0 0 1 1,1 2.15,2.15 0 0 1 0.06,1.14 2.89,2.89 0 0 1 -0.72,1.31 c -0.26,0.23 -0.41,0.33 -0.47,0.29 z"
       style="fill:#263238"
       id="path66" />
    <path
       d="m 242.62,356 26.55,71.58 -14.28,40.42 h 133.56 c 0,0 -8.2,-37.54 -8.7,-46 -0.5,-8.46 0,-56.62 -4,-73.15 -4,-16.53 -15.53,-52 -15.53,-52 l -33.85,-5.37 c -15.52,8.34 -27.71,6.94 -44.4,-2.73 l -30.69,15.08 z"
       style="fill:#c53aae"
       id="path67" />
    <path
       d="m 359.37,296.88 c 0,0 10.27,2.19 17.63,17.12 7.24,14.78 35.22,79.89 36.31,90.81 1.09,10.92 -7.77,25.62 -15.49,27.65 L 374,397.55 l 0.73,-5.1 -19.95,-66.52 z"
       style="fill:#c53aae"
       id="path68" />
    <path
       d="m 364.56,321.63 0.14,0.15 0.39,0.45 c 0.32,0.42 0.85,1 1.43,1.81 a 48.12,48.12 0 0 1 4.42,7.21 59.64,59.64 0 0 1 4.37,11.75 77.34,77.34 0 0 1 2.29,15.2 141.21,141.21 0 0 1 -1.83,27.8 c -0.53,3.53 -1,6.38 -1.36,8.34 -0.17,1 -0.31,1.72 -0.4,2.27 -0.05,0.23 -0.09,0.43 -0.12,0.58 a 0.63,0.63 0 0 1 -0.06,0.2 1.47,1.47 0 0 1 0,-0.2 c 0,-0.16 0,-0.36 0.07,-0.6 l 0.33,-2.27 c 0.29,-2 0.71,-4.86 1.22,-8.36 0.95,-7.06 2.24,-16.89 1.7,-27.76 a 78.24,78.24 0 0 0 -2.24,-15.12 60.37,60.37 0 0 0 -4.26,-11.72 50.69,50.69 0 0 0 -4.29,-7.26 c -0.55,-0.83 -1.06,-1.41 -1.36,-1.84 l -0.35,-0.48 c -0.06,-0.09 -0.1,-0.14 -0.09,-0.15 z"
       style="fill:#263238"
       id="path69" />
    <path
       d="m 400.35,394.91 a 4.23,4.23 0 0 1 -1,-0.25 l -2.62,-0.81 a 44.43,44.43 0 0 0 -8.77,-1.94 20.34,20.34 0 0 0 -8.83,1 23.86,23.86 0 0 0 -3.33,1.65 3.3,3.3 0 0 1 0.79,-0.64 12.65,12.65 0 0 1 2.43,-1.29 19.33,19.33 0 0 1 9,-1.16 38.9,38.9 0 0 1 8.83,2.07 c 1.09,0.38 2,0.71 2.57,0.94 a 4.58,4.58 0 0 1 0.93,0.43 z"
       style="fill:#263238"
       id="path70" />
    <path
       d="m 397.46,379.43 a 4.64,4.64 0 0 1 -1,0.37 c -0.64,0.2 -1.55,0.52 -2.65,0.95 a 43.88,43.88 0 0 0 -15.41,10.12 c -0.84,0.85 -1.49,1.55 -1.93,2.05 a 4.87,4.87 0 0 1 -0.72,0.75 3.88,3.88 0 0 1 0.59,-0.85 c 0.4,-0.54 1,-1.28 1.84,-2.16 a 39.15,39.15 0 0 1 15.52,-10.19 26.67,26.67 0 0 1 2.71,-0.83 4.9,4.9 0 0 1 1.05,-0.21 z"
       style="fill:#263238"
       id="path71" />
    <path
       d="m 305.54,419.11 -16,-15.43 a 7.37,7.37 0 0 0 -5.82,-2 c -4.56,0.43 -12.29,1.23 -13.88,1.85 -2.28,0.89 -4.44,2.16 -5.07,3.3 a 66,66 0 0 0 -2.92,9 19.57,19.57 0 0 0 0.25,3.25 2.26,2.26 0 0 0 3.32,1.72 3.74,3.74 0 0 0 1.5,-1.42 c 1,-1.9 0.89,-2.67 0.89,-2.67 0,0 -0.51,6.86 5.08,7 0,0 -2.57,5.84 4.62,8.25 0,0 -0.27,3.81 5.74,4.31 a 72.79,72.79 0 0 0 11.47,0 c 0,0 11,7.9 18.74,8.41 7.74,0.51 25.08,-2.88 25.08,-2.88 l 2.09,-31.93 z"
       style="fill:#ffbf9d"
       id="path74" />
    <path
       d="m 283.9,409.32 a 16,16 0 0 1 -2.56,1.07 c -1.61,0.6 -3.84,1.4 -6.37,2.08 -1.26,0.35 -2.52,0.55 -3.57,0.84 a 3.89,3.89 0 0 0 -2.18,1.79 17.38,17.38 0 0 1 -1.15,1.67 c -0.32,0.37 -0.54,0.53 -0.56,0.51 a 6.86,6.86 0 0 1 0.42,-0.61 c 0.28,-0.39 0.59,-1 1,-1.74 a 6.14,6.14 0 0 1 0.88,-1.14 3.45,3.45 0 0 1 1.44,-0.85 c 1.12,-0.33 2.32,-0.53 3.58,-0.89 2.51,-0.67 4.75,-1.42 6.38,-1.94 a 18.42,18.42 0 0 1 2.69,-0.79 z"
       style="fill:#ff9a6c"
       id="path75" />
    <path
       d="m 286,419.11 a 8.28,8.28 0 0 1 -1.77,0.82 c -1.12,0.45 -2.69,1 -4.43,1.62 -1.74,0.62 -3.35,1.06 -4.52,1.37 a 8.68,8.68 0 0 1 -1.91,0.42 8.81,8.81 0 0 1 1.82,-0.71 l 4.47,-1.49 4.46,-1.49 a 9.06,9.06 0 0 1 1.88,-0.54 z"
       style="fill:#ff9a6c"
       id="path76" />
    <path
       d="m 289.9,428.21 c 0,0.13 -2.78,0.42 -6.1,1.33 -3.32,0.91 -5.89,2 -5.95,1.92 a 6.8,6.8 0 0 1 1.63,-0.86 29.24,29.24 0 0 1 4.21,-1.48 31.09,31.09 0 0 1 4.37,-0.84 7,7 0 0 1 1.84,-0.07 z"
       style="fill:#ff9a6c"
       id="path77" />
    <path
       d="m 326.9,443.8 70.68,-12.28 c 0,0 -8.32,-34.59 -20.75,-34.59 -1.82,0 -63.34,23 -63.34,23 z"
       style="fill:#ffbf9d"
       id="path78" />
    <path
       d="m 314.5,428.32 a 14.93,14.93 0 0 1 -1.66,-1.52 L 309,423 c -1.5,-1.49 -2.85,-2.87 -3.79,-3.9 a 10.58,10.58 0 0 1 -1.44,-1.73 14.93,14.93 0 0 1 1.66,1.52 l 3.87,3.81 c 1.51,1.49 2.85,2.87 3.79,3.9 a 10,10 0 0 1 1.41,1.72 z"
       style="fill:#ff9a6c"
       id="path79" />
    <path
       d="m 252.7,303 c 0,0 -23.7,13.83 -17.58,39.31 6.88,28.69 70.88,71.6 70.88,71.6 -3,-17.74 -0.66,-34.72 9.06,-50.63 l -33.09,-30.65"
       style="fill:#c53aae"
       id="path80" />
    <path
       d="m 281.92,332.63 c 0,0 0.21,0.17 0.6,0.53 0.39,0.36 1,0.89 1.75,1.58 l 6.66,6.11 24.19,22.31 0.1,0.09 -0.07,0.12 a 69.75,69.75 0 0 0 -8.87,22.63 77.24,77.24 0 0 0 -0.12,27.9 l 0.08,0.48 -0.41,-0.27 c -6.73,-4.6 -13.55,-9.61 -20.4,-14.94 C 272.05,388.68 259.81,378 250,366.94 c -1.25,-1.36 -2.38,-2.79 -3.54,-4.16 -1.16,-1.37 -2.23,-2.78 -3.23,-4.22 a 62.91,62.91 0 0 1 -5.37,-8.62 34,34 0 0 1 -3.86,-17.64 32.75,32.75 0 0 1 4.24,-14.3 40.79,40.79 0 0 1 6.9,-9 44.35,44.35 0 0 1 5.46,-4.63 c 0.67,-0.48 1.2,-0.82 1.55,-1 0.35,-0.18 0.55,-0.32 0.55,-0.32 l -0.52,0.36 c -0.35,0.23 -0.87,0.58 -1.52,1.07 a 45.25,45.25 0 0 0 -5.41,4.68 40.88,40.88 0 0 0 -6.8,9 32.53,32.53 0 0 0 -4.14,14.23 33.75,33.75 0 0 0 3.9,17.47 62.51,62.51 0 0 0 5.36,8.56 c 1,1.43 2.13,2.78 3.22,4.2 1.09,1.42 2.29,2.78 3.53,4.14 9.77,11 22,21.67 35.37,32.13 6.84,5.32 13.66,10.34 20.38,14.93 l -0.33,0.21 a 77.36,77.36 0 0 1 0.16,-28.05 70,70 0 0 1 9,-22.7 v 0.2 L 290.81,341 l -6.6,-6.18 -1.72,-1.62 z"
       style="fill:#263238"
       id="path81" />
    <path
       d="m 306,413 c 0,0 15,12.2 30.27,4.92 2.45,-1.16 5.53,-4.21 7.39,-9.29 9.75,-26.73 10.89,-97.29 10.89,-97.29 L 327.83,309.53 315,363.28 c -9.18,13.18 -12.07,29.81 -9,49.72 z"
       style="fill:#ffbf9d"
       id="path82" />
    <path
       d="m 347.17,396 a 1.8,1.8 0 0 1 -0.05,0.51 c -0.05,0.33 -0.12,0.82 -0.24,1.44 -0.23,1.26 -0.59,3.06 -1.2,5.26 a 38.85,38.85 0 0 1 -2.86,7.49 18.23,18.23 0 0 1 -6.43,7.36 18.76,18.76 0 0 1 -9.47,2.43 27.14,27.14 0 0 1 -7.92,-1.18 28.42,28.42 0 0 1 -5,-2 c -0.57,-0.27 -1,-0.55 -1.28,-0.71 a 2.25,2.25 0 0 1 -0.43,-0.28 c 0,0 0.64,0.3 1.79,0.84 a 31.73,31.73 0 0 0 5,1.86 27.71,27.71 0 0 0 7.84,1.07 18.55,18.55 0 0 0 9.25,-2.4 18,18 0 0 0 6.3,-7.18 40,40 0 0 0 2.92,-7.38 c 0.64,-2.18 1.05,-4 1.32,-5.21 0.14,-0.59 0.24,-1.06 0.32,-1.43 a 2.46,2.46 0 0 1 0.14,-0.49 z"
       style="fill:#ff9a6c"
       id="path83" />
    <path
       d="m 314.15,363.67 a 27.08,27.08 0 0 0 -4.26,1.17 23.8,23.8 0 0 0 -8.61,6.11 51.86,51.86 0 0 0 -6.18,8.7 l -1.65,2.8 a 5.7,5.7 0 0 1 -0.65,1 8.45,8.45 0 0 1 0.5,-1.09 c 0.35,-0.68 0.87,-1.67 1.53,-2.87 a 46.87,46.87 0 0 1 6.14,-8.84 22.83,22.83 0 0 1 8.81,-6.11 16.14,16.14 0 0 1 3.17,-0.8 7.72,7.72 0 0 1 0.89,-0.08 z"
       style="fill:#263238"
       id="path84" />
    <path
       d="m 328.75,302.5 c -0.59,-2 -3.92,-20.19 -5.27,-24.42 -1.91,-6 -17.43,-16.66 -17.43,-16.66 0,0 2.43,-5.61 9,-2.69 7.83,3.45 11.69,9.26 13.66,8.08 1.97,-1.18 14.27,-13.7 17.62,-13.3 3.35,0.4 4.09,3.83 2.9,5.21 a 31,31 0 0 0 -2.51,3.66 c 0,0 7.1,-2.14 5.72,5.63 0,0 8.08,-5 7.29,5.6 0,0 5.33,-2.16 6.51,1.58 1.18,3.74 -2.33,8.08 -4.1,11 -1.77,2.92 -7.53,20.11 -7.53,20.11 l -0.61,10.53 -27.66,-1.18 z"
       style="fill:#ffbf9d"
       id="path85" />
    <path
       d="m 354.35,317.83 c 0,0 0,-0.26 0,-0.76 0,-0.5 0,-1.25 0,-2.21 0,-2 0.09,-4.83 0.17,-8.53 v 0 c 1.46,-4.3 3.31,-9.89 5.82,-16.38 a 24.64,24.64 0 0 1 2.36,-4.89 33.32,33.32 0 0 0 2.86,-5 9,9 0 0 0 0.73,-2.86 4.51,4.51 0 0 0 -0.68,-2.85 2.84,2.84 0 0 0 -0.51,-0.53 3.21,3.21 0 0 0 -0.66,-0.35 4,4 0 0 0 -1.5,-0.27 8.75,8.75 0 0 0 -3.13,0.61 l -0.27,0.1 v -0.29 a 16.17,16.17 0 0 0 -0.06,-3 4.83,4.83 0 0 0 -1.15,-2.74 3.12,3.12 0 0 0 -2.82,-0.76 8.57,8.57 0 0 0 -3,1.11 l -0.36,0.21 v -0.41 l 0.15,-1.2 c 0,-0.41 0,-0.81 0,-1.22 a 4,4 0 0 0 -0.87,-2.21 3.37,3.37 0 0 0 -2.19,-1 7.09,7.09 0 0 0 -2.55,0.23 l -0.5,0.13 0.26,-0.44 c 0.49,-0.82 1,-1.63 1.56,-2.42 0.29,-0.4 0.58,-0.79 0.89,-1.17 a 2.11,2.11 0 0 0 0.53,-1.21 3.31,3.31 0 0 0 -0.81,-2.56 3.7,3.7 0 0 0 -2.48,-1.19 3.12,3.12 0 0 0 -1.35,0.35 11.67,11.67 0 0 0 -1.3,0.7 27.71,27.71 0 0 0 -2.49,1.73 c -1.62,1.23 -3.19,2.56 -4.75,3.93 l -3.64,3.24 c -1.21,1.08 -2.36,2.18 -3.65,3.17 a 1.48,1.48 0 0 1 -1.29,0.3 3.56,3.56 0 0 1 -1.13,-0.58 c -0.65,-0.48 -1.23,-1 -1.82,-1.54 -1.16,-1.06 -2.32,-2.08 -3.55,-3 a 30.11,30.11 0 0 0 -3.85,-2.45 13.29,13.29 0 0 0 -4.14,-1.53 6.69,6.69 0 0 0 -4.17,0.56 6.84,6.84 0 0 0 -2.91,2.9 l -0.07,-0.24 a 102.71,102.71 0 0 1 11.97,9.34 30.8,30.8 0 0 1 4.59,5.23 8.64,8.64 0 0 1 0.8,1.5 c 0.1,0.26 0.23,0.51 0.31,0.78 l 0.22,0.79 c 0.27,1.05 0.51,2.09 0.74,3.1 1.8,8.16 3,15.14 4.22,20.42 v 0 c -0.81,4.23 -1.43,7.52 -1.86,9.75 -0.21,1.1 -0.38,1.94 -0.49,2.53 -0.11,0.59 -0.19,0.85 -0.19,0.85 0,0 0,-0.29 0.13,-0.86 0.13,-0.57 0.25,-1.43 0.44,-2.54 0.41,-2.24 1,-5.53 1.76,-9.77 v 0 c -1.26,-5.31 -2.5,-12.26 -4.33,-20.4 -0.51,-2 -0.79,-4.23 -2,-6.06 a 31.24,31.24 0 0 0 -4.55,-5.16 103.05,103.05 0 0 0 -11.79,-9.32 l -0.15,-0.1 0.08,-0.15 a 6.9,6.9 0 0 1 7.51,-3.7 13.58,13.58 0 0 1 4.27,1.57 29.72,29.72 0 0 1 3.9,2.47 46.63,46.63 0 0 1 3.59,3 c 0.58,0.52 1.16,1.06 1.78,1.52 0.62,0.46 1.35,0.79 1.92,0.27 1.24,-0.95 2.41,-2.07 3.62,-3.14 l 3.64,-3.24 c 1.56,-1.37 3.14,-2.71 4.77,-3.95 a 30.65,30.65 0 0 1 2.52,-1.75 11.86,11.86 0 0 1 1.36,-0.73 3.59,3.59 0 0 1 1.55,-0.39 4.11,4.11 0 0 1 2.76,1.34 3.71,3.71 0 0 1 0.92,2.9 2.59,2.59 0 0 1 -0.63,1.42 c -0.3,0.36 -0.59,0.75 -0.86,1.14 -0.55,0.78 -1.07,1.58 -1.55,2.39 l -0.24,-0.3 a 7.55,7.55 0 0 1 2.71,-0.24 3.76,3.76 0 0 1 2.45,1.13 4.44,4.44 0 0 1 1,2.45 c 0,0.43 0,0.86 0,1.28 l -0.15,1.25 -0.31,-0.21 a 9,9 0 0 1 3.14,-1.16 4.33,4.33 0 0 1 1.68,0.05 3.12,3.12 0 0 1 1.47,0.82 5.18,5.18 0 0 1 1.25,3 15.43,15.43 0 0 1 0,3.11 l -0.26,-0.19 a 9.54,9.54 0 0 1 3.27,-0.63 4.37,4.37 0 0 1 1.64,0.3 3.53,3.53 0 0 1 0.74,0.4 3,3 0 0 1 0.58,0.61 4.85,4.85 0 0 1 0.74,3.08 9.29,9.29 0 0 1 -0.77,3 34.13,34.13 0 0 1 -2.89,5 23.35,23.35 0 0 0 -2.36,4.82 c -2.54,6.47 -4.42,12 -5.91,16.33 v 0 c -0.12,3.69 -0.21,6.56 -0.27,8.52 0,1 -0.06,1.7 -0.08,2.22 -0.02,0.52 -0.08,0.83 -0.08,0.83 z"
       style="fill:#ff9a6c"
       id="path86" />
    <path
       d="m 346.74,262.57 a 40.3,40.3 0 0 1 -3.43,3.2 42.3,42.3 0 0 1 -3.51,3.12 18.62,18.62 0 0 1 3.22,-3.43 18.9,18.9 0 0 1 3.72,-2.89 z"
       style="fill:#ff9a6c"
       id="path87" />
    <path
       d="m 353.06,267.59 a 11.68,11.68 0 0 1 -4.37,5.63 c -0.08,-0.1 1.09,-1.19 2.29,-2.74 1.2,-1.55 1.96,-2.95 2.08,-2.89 z"
       style="fill:#ff9a6c"
       id="path88" />
    <path
       d="m 359.66,273.22 a 9.16,9.16 0 0 1 -1.48,2.43 9.78,9.78 0 0 1 -1.83,2.17 9.53,9.53 0 0 1 1.48,-2.42 10,10 0 0 1 1.83,-2.18 z"
       style="fill:#ff9a6c"
       id="path89" />
  </g>
</svg>
